<svg width="52" height="52" viewBox="0 0 52 52" fill="none" xmlns="http://www.w3.org/2000/svg">
<circle cx="26" cy="26" r="26" fill="#0062F4"/>
<g clip-path="url(#clip0_64_771)">
<path d="M23.4 15.6001H22.5333V16.4668H23.4V15.6001Z" fill="white"/>
<path d="M19.9333 15.6001H19.0667V16.4668H19.9333V15.6001Z" fill="white"/>
<path d="M16.4666 15.6001H15.6V16.4668H16.4666V15.6001Z" fill="white"/>
<path d="M39 18.2V14.95C39 13.8749 38.1251 13 37.05 13H14.95C13.8749 13 13 13.8749 13 14.95V18.2H39ZM21.6667 15.1667C21.6667 14.9275 21.8608 14.7333 22.1 14.7333H23.8333C24.0725 14.7333 24.2667 14.9275 24.2667 15.1667V16.9C24.2667 17.1392 24.0725 17.3333 23.8333 17.3333H22.1C21.8608 17.3333 21.6667 17.1392 21.6667 16.9V15.1667ZM18.2 15.1667C18.2 14.9275 18.3941 14.7333 18.6333 14.7333H20.3667C20.6059 14.7333 20.8 14.9275 20.8 15.1667V16.9C20.8 17.1392 20.6059 17.3333 20.3667 17.3333H18.6333C18.3941 17.3333 18.2 17.1392 18.2 16.9V15.1667ZM14.7333 15.1667C14.7333 14.9275 14.9275 14.7333 15.1667 14.7333H16.9C17.1392 14.7333 17.3333 14.9275 17.3333 15.1667V16.9C17.3333 17.1392 17.1392 17.3333 16.9 17.3333H15.1667C14.9275 17.3333 14.7333 17.1392 14.7333 16.9V15.1667Z" fill="white"/>
<path d="M31.6333 34.6667H28.1666C27.9274 34.6667 27.7333 34.8609 27.7333 35.1001C27.7333 35.3393 27.9274 35.5334 28.1666 35.5334H31.6333C31.8725 35.5334 32.0666 35.3393 32.0666 35.1001C32.0666 34.8609 31.8725 34.6667 31.6333 34.6667Z" fill="white"/>
<path d="M32.0667 30.7666H19.9333V31.6333H32.0667V30.7666Z" fill="white"/>
<path d="M23.8333 34.6667H20.3667C20.1275 34.6667 19.9333 34.8609 19.9333 35.1001C19.9333 35.3393 20.1275 35.5334 20.3667 35.5334H23.8333C24.0725 35.5334 24.2667 35.3393 24.2667 35.1001C24.2667 34.8609 24.0725 34.6667 23.8333 34.6667Z" fill="white"/>
<path d="M13 19.0667V37.05C13 38.1251 13.8749 39 14.95 39H37.05C38.1251 39 39 38.1251 39 37.05V19.0667H13ZM20.927 24.3936L23.527 21.7936C23.696 21.6242 23.9707 21.6242 24.1397 21.7936L25.5667 23.2206L27.8603 20.927C28.0293 20.7575 28.304 20.7575 28.473 20.927L31.073 23.527C31.2425 23.6964 31.2425 23.9703 31.073 24.1397C30.9885 24.2242 30.8776 24.2667 30.7667 24.2667C30.6557 24.2667 30.5448 24.2242 30.4603 24.1397L28.1667 21.8461L26.1794 23.8333L26.7397 24.3936C26.9091 24.5631 26.9091 24.8369 26.7397 25.0064C26.6552 25.0909 26.5443 25.1333 26.4333 25.1333C26.3224 25.1333 26.2115 25.0909 26.127 25.0064L23.8333 22.7127L21.5397 25.0064C21.4552 25.0909 21.3443 25.1333 21.2333 25.1333C21.1224 25.1333 21.0115 25.0909 20.927 25.0064C20.7575 24.8369 20.7575 24.5631 20.927 24.3936ZM23.8333 36.4H20.3667C19.6499 36.4 19.0667 35.8167 19.0667 35.1C19.0667 34.3833 19.6499 33.8 20.3667 33.8H23.8333C24.5501 33.8 25.1333 34.3833 25.1333 35.1C25.1333 35.8167 24.5501 36.4 23.8333 36.4ZM31.6333 36.4H28.1667C27.4499 36.4 26.8667 35.8167 26.8667 35.1C26.8667 34.3833 27.4499 33.8 28.1667 33.8H31.6333C32.3501 33.8 32.9333 34.3833 32.9333 35.1C32.9333 35.8167 32.3501 36.4 31.6333 36.4ZM32.9333 32.0667C32.9333 32.3063 32.7392 32.5 32.5 32.5H19.5C19.2608 32.5 19.0667 32.3063 19.0667 32.0667V30.3333C19.0667 30.0937 19.2608 29.9 19.5 29.9H32.5C32.7392 29.9 32.9333 30.0937 32.9333 30.3333V32.0667ZM32.9333 28.6C32.9333 28.8396 32.7392 29.0333 32.5 29.0333H19.5C19.2608 29.0333 19.0667 28.8396 19.0667 28.6V26.8667C19.0667 26.627 19.2608 26.4333 19.5 26.4333H32.5C32.7392 26.4333 32.9333 26.627 32.9333 26.8667V28.6Z" fill="white"/>
<path d="M32.0667 27.3H19.9333V28.1667H32.0667V27.3Z" fill="white"/>
</g>
<defs>
<clipPath id="clip0_64_771">
<rect width="26" height="26" fill="white" transform="translate(13 13)"/>
</clipPath>
</defs>
</svg>
