<svg width="49" height="52" viewBox="0 0 49 52" fill="none" xmlns="http://www.w3.org/2000/svg">
<ellipse cx="24.4745" cy="26" rx="24.4745" ry="26" fill="#77ED91"/>
<path fill-rule="evenodd" clip-rule="evenodd" d="M32.918 18.5738C33.0396 18.678 33.1395 18.8052 33.2119 18.948C33.2843 19.0908 33.3279 19.2465 33.3401 19.4062C33.3523 19.5658 33.333 19.7263 33.2831 19.8785C33.2333 20.0307 33.1539 20.1716 33.0496 20.2931L23.2996 31.6681C23.1903 31.7956 23.0558 31.8992 22.9046 31.9722C22.7534 32.0453 22.5886 32.0864 22.4208 32.0928C22.253 32.0992 22.0856 32.0708 21.9292 32.0095C21.7729 31.9481 21.6309 31.8551 21.5121 31.7363L15.8246 26.0488C15.6027 25.8189 15.48 25.5109 15.483 25.1914C15.4859 24.8718 15.6142 24.5662 15.8403 24.3404C16.0664 24.1145 16.3721 23.9865 16.6916 23.9838C17.0112 23.9812 17.319 24.1042 17.5488 24.3263L22.3068 29.0827L31.2004 18.7071C31.4108 18.462 31.7099 18.3105 32.032 18.2858C32.354 18.2611 32.6727 18.3637 32.918 18.5738Z" fill="white"/>
</svg>
