<svg width="22" height="22" viewBox="0 0 22 22" fill="none" xmlns="http://www.w3.org/2000/svg">
<path d="M20.1667 7.79159C20.1667 11.0824 17.4992 13.7499 14.2083 13.7499C14.0525 13.7499 13.8875 13.7408 13.7317 13.7316C13.5025 10.8258 11.1742 8.49741 8.26832 8.26824C8.25916 8.11241 8.25 7.94742 8.25 7.79159C8.25 4.50075 10.9175 1.83325 14.2083 1.83325C17.4992 1.83325 20.1667 4.50075 20.1667 7.79159Z" stroke="#8F9090" stroke-width="1.5" stroke-linecap="round" stroke-linejoin="round"/>
<path d="M13.75 14.2083C13.75 17.4992 11.0825 20.1667 7.79171 20.1667C4.50087 20.1667 1.83337 17.4992 1.83337 14.2083C1.83337 10.9175 4.50087 8.25 7.79171 8.25C7.94754 8.25 8.11253 8.25916 8.26836 8.26832C11.1742 8.49749 13.5026 10.8258 13.7317 13.7317C13.7409 13.8875 13.75 14.0525 13.75 14.2083Z" stroke="#8F9090" stroke-width="1.5" stroke-linecap="round" stroke-linejoin="round"/>
<path d="M5.1242 1.83325H2.75004C2.24587 1.83325 1.83337 2.24575 1.83337 2.74992V5.12408C1.83337 5.93992 2.82337 6.35241 3.40087 5.77491L5.77503 3.40074C6.34336 2.82324 5.94004 1.83325 5.1242 1.83325Z" stroke="#8F9090" stroke-width="1.5" stroke-linecap="round" stroke-linejoin="round"/>
<path d="M16.8759 20.1667H19.25C19.7542 20.1667 20.1667 19.7542 20.1667 19.2501V16.8759C20.1667 16.0601 19.1767 15.6476 18.5992 16.2251L16.225 18.5992C15.6567 19.1767 16.06 20.1667 16.8759 20.1667Z" stroke="#8F9090" stroke-width="1.5" stroke-linecap="round" stroke-linejoin="round"/>
</svg>
