<svg width="52" height="52" viewBox="0 0 52 52" fill="none" xmlns="http://www.w3.org/2000/svg">
<circle cx="26" cy="26" r="26" fill="#FF9300"/>
<path d="M30.3875 12.4583H25.1144C22.7256 12.4583 20.8325 12.4583 19.3524 12.6587C17.8276 12.8645 16.594 13.2978 15.6217 14.2742C14.648 15.2505 14.216 16.4896 14.0116 18.0198C13.8125 19.5067 13.8125 21.4066 13.8125 23.8048V31.7104C13.8125 33.7525 15.0583 35.5021 16.8282 36.2361C16.7375 35.0038 16.7375 33.2772 16.7375 31.8391V25.0547C16.7375 23.32 16.7375 21.8237 16.8973 20.6266C17.0693 19.3428 17.4566 18.1133 18.4505 17.1152C19.4445 16.1172 20.67 15.7286 21.9483 15.5552C23.14 15.3954 24.6296 15.3954 26.3589 15.3954H30.5161C32.2441 15.3954 33.7309 15.3954 34.924 15.5552C34.5664 14.643 33.9424 13.8597 33.1333 13.3073C32.3241 12.7548 31.3673 12.459 30.3875 12.4583Z" fill="white"/>
<path d="M18.6875 25.1834C18.6875 21.492 18.6875 19.6463 19.8304 18.4993C20.972 17.3523 22.8096 17.3523 26.4875 17.3523H30.3875C34.0641 17.3523 35.903 17.3523 37.0459 18.4993C38.1875 19.6463 38.1875 21.492 38.1875 25.1834V31.7105C38.1875 35.402 38.1875 37.2477 37.0459 38.3947C35.903 39.5417 34.0641 39.5417 30.3875 39.5417H26.4875C22.8109 39.5417 20.972 39.5417 19.8304 38.3947C18.6875 37.2477 18.6875 35.402 18.6875 31.7105V25.1834Z" fill="white"/>
</svg>
