<svg width="1440" height="896" viewBox="0 0 1440 896" fill="none" xmlns="http://www.w3.org/2000/svg">
<g clip-path="url(#clip0_38_688)">
<path fill-rule="evenodd" clip-rule="evenodd" d="M203.284 302.159C115.37 287.346 42.077 218.805 17.3681 122.988C-69.6096 -214.294 -232.183 -984.584 97.2932 -984.605C364.409 -984.622 945.916 -696.725 1336.54 -485.54C1506.02 -393.912 1509.97 -130.547 1346.11 -26.8417L766.607 339.916C720.384 369.169 666.776 380.255 614.296 371.412L203.284 302.159Z" fill="url(#paint0_linear_38_688)"/>
<mask id="mask0_38_688" style="mask-type:luminance" maskUnits="userSpaceOnUse" x="-261" y="-1329" width="1568" height="1360">
<path fill-rule="evenodd" clip-rule="evenodd" d="M43.2645 -41.3964C-44.6494 -56.2094 -117.942 -124.751 -142.651 -220.567C-229.629 -557.85 -392.202 -1328.14 -62.7262 -1328.16C204.389 -1328.18 785.896 -1040.28 1176.52 -829.096C1346 -737.468 1349.95 -474.102 1186.09 -370.397L606.587 -3.63981C560.365 25.6136 506.756 36.6995 454.276 27.8569L43.2645 -41.3964Z" fill="white"/>
</mask>
<g mask="url(#mask0_38_688)">
</g>
<path fill-rule="evenodd" clip-rule="evenodd" d="M-21.7317 534.936C-18.3157 542.458 -11.5703 547.358 -4.03644 547.788L76.7337 552.407C84.2675 552.838 91.4449 548.734 95.5627 541.643L139.708 465.61C143.826 458.519 144.258 449.516 140.842 441.993L104.217 361.342C100.8 353.819 94.055 348.92 86.521 348.489L5.75089 343.87C-1.78294 343.44 -8.9603 347.543 -13.0781 354.635L-57.2233 430.667C-61.3409 437.759 -61.773 446.762 -58.3568 454.284L-21.7317 534.936Z" fill="black" fill-opacity="0.03"/>
<path fill-rule="evenodd" clip-rule="evenodd" d="M-7.45965 305.365C-4.04359 312.888 2.70183 317.787 10.2357 318.218L91.0058 322.837C98.5396 323.267 105.717 319.164 109.835 312.072L153.98 236.04C158.098 228.948 158.53 219.945 155.114 212.423L118.489 131.772C115.072 124.249 108.327 119.349 100.793 118.918L20.023 114.3C12.4892 113.869 5.3118 117.972 1.19404 125.064L-42.9512 201.096C-47.0688 208.188 -47.5009 217.191 -44.0847 224.714L-7.45965 305.365Z" fill="black" fill-opacity="0.03"/>
<path fill-rule="evenodd" clip-rule="evenodd" d="M165.474 427.911C168.89 435.433 175.635 440.333 183.169 440.764L263.939 445.382C271.473 445.813 278.65 441.71 282.768 434.618L326.913 358.586C331.031 351.494 331.463 342.491 328.047 334.969L291.422 254.317C288.006 246.795 281.261 241.895 273.727 241.464L192.956 236.846C185.423 236.415 178.245 240.518 174.128 247.61L129.982 323.642C125.865 330.734 125.433 339.737 128.849 347.26L165.474 427.911Z" fill="black" fill-opacity="0.03"/>
<path fill-rule="evenodd" clip-rule="evenodd" d="M73.0918 260.754C72.927 264.282 74.4567 267.641 77.1048 269.566L105.495 290.201C108.143 292.126 111.507 292.324 114.32 290.72L144.477 273.528C147.29 271.924 149.124 268.763 149.289 265.235L151.056 227.407C151.22 223.879 149.691 220.52 147.043 218.595L118.653 197.96C116.005 196.035 112.641 195.837 109.828 197.441L79.6707 214.633C76.8578 216.237 75.0235 219.398 74.8587 222.927L73.0918 260.754Z" fill="url(#paint1_linear_38_688)"/>
<path fill-rule="evenodd" clip-rule="evenodd" d="M1146.63 412.146C1150.04 419.668 1156.79 424.568 1164.32 424.999L1245.09 429.618C1252.63 430.048 1259.8 425.945 1263.92 418.853L1308.07 342.821C1312.18 335.729 1312.62 326.726 1309.2 319.204L1272.57 238.553C1269.16 231.03 1262.41 226.13 1254.88 225.699L1174.11 221.081C1166.57 220.65 1159.4 224.753 1155.28 231.845L1111.13 307.877C1107.02 314.969 1106.58 323.972 1110 331.495L1146.63 412.146Z" fill="black" fill-opacity="0.03"/>
<path fill-rule="evenodd" clip-rule="evenodd" d="M1288.39 332.097C1288.22 335.625 1289.75 338.984 1292.4 340.909L1320.79 361.544C1323.44 363.469 1326.8 363.666 1329.62 362.063L1359.77 344.871C1362.59 343.267 1364.42 340.106 1364.58 336.577L1366.35 298.75C1366.52 295.222 1364.99 291.862 1362.34 289.938L1333.95 269.303C1331.3 267.378 1327.94 267.18 1325.12 268.784L1294.97 285.976C1292.15 287.58 1290.32 290.741 1290.15 294.269L1288.39 332.097Z" fill="url(#paint2_linear_38_688)"/>
<path fill-rule="evenodd" clip-rule="evenodd" d="M1350.3 602.255C1355.41 613.518 1365.5 620.861 1376.76 621.517L1497.49 628.552C1508.75 629.208 1519.47 623.078 1525.62 612.471L1591.51 498.748C1597.65 488.141 1598.29 474.668 1593.17 463.405L1538.33 342.647C1533.22 331.383 1523.13 324.041 1511.87 323.384L1391.14 316.349C1379.88 315.694 1369.16 321.824 1363.01 332.431L1297.12 446.153C1290.98 456.761 1290.34 470.234 1295.46 481.497L1350.3 602.255Z" fill="black" fill-opacity="0.03"/>
</g>
<defs>
<linearGradient id="paint0_linear_38_688" x1="-657.465" y1="-96.1692" x2="394.429" y2="1314.14" gradientUnits="userSpaceOnUse">
<stop stop-color="#2E7D32"/>
<stop offset="1" stop-color="#FF6F00"/>
</linearGradient>
<linearGradient id="paint1_linear_38_688" x1="63.2917" y1="265.565" x2="166.693" y2="330.395" gradientUnits="userSpaceOnUse">
<stop stop-color="#FFA000"/>
<stop offset="1" stop-color="#FFECB3"/>
</linearGradient>
<linearGradient id="paint2_linear_38_688" x1="1320.22" y1="244.105" x2="1225.28" y2="286.467" gradientUnits="userSpaceOnUse">
<stop stop-color="#4CAF50"/>
<stop offset="1" stop-color="#C8E6C9"/>
</linearGradient>
<clipPath id="clip0_38_688">
<rect width="1440" height="895.5" fill="white"/>
</clipPath>
</defs>
</svg>
