<svg width="47" height="46" viewBox="0 0 47 46" fill="none" xmlns="http://www.w3.org/2000/svg">
<rect x="1.20972" y="0.5" width="45" height="45" rx="22.5" stroke="#179750"/>
<path d="M19.5097 13H27.9097C31.1097 13 33.7097 15.6 33.7097 18.8V27.2C33.7097 28.7383 33.0986 30.2135 32.0109 31.3012C30.9232 32.3889 29.448 33 27.9097 33H19.5097C16.3097 33 13.7097 30.4 13.7097 27.2V18.8C13.7097 17.2617 14.3208 15.7865 15.4085 14.6988C16.4962 13.6111 17.9715 13 19.5097 13ZM19.3097 15C18.3549 15 17.4393 15.3793 16.7641 16.0544C16.089 16.7295 15.7097 17.6452 15.7097 18.6V27.4C15.7097 29.39 17.3197 31 19.3097 31H28.1097C29.0645 31 29.9802 30.6207 30.6553 29.9456C31.3304 29.2705 31.7097 28.3548 31.7097 27.4V18.6C31.7097 16.61 30.0997 15 28.1097 15H19.3097ZM28.9597 16.5C29.2912 16.5 29.6092 16.6317 29.8436 16.8661C30.078 17.1005 30.2097 17.4185 30.2097 17.75C30.2097 18.0815 30.078 18.3995 29.8436 18.6339C29.6092 18.8683 29.2912 19 28.9597 19C28.6282 19 28.3103 18.8683 28.0758 18.6339C27.8414 18.3995 27.7097 18.0815 27.7097 17.75C27.7097 17.4185 27.8414 17.1005 28.0758 16.8661C28.3103 16.6317 28.6282 16.5 28.9597 16.5ZM23.7097 18C25.0358 18 26.3076 18.5268 27.2453 19.4645C28.1829 20.4021 28.7097 21.6739 28.7097 23C28.7097 24.3261 28.1829 25.5979 27.2453 26.5355C26.3076 27.4732 25.0358 28 23.7097 28C22.3836 28 21.1119 27.4732 20.1742 26.5355C19.2365 25.5979 18.7097 24.3261 18.7097 23C18.7097 21.6739 19.2365 20.4021 20.1742 19.4645C21.1119 18.5268 22.3836 18 23.7097 18ZM23.7097 20C22.9141 20 22.151 20.3161 21.5884 20.8787C21.0258 21.4413 20.7097 22.2044 20.7097 23C20.7097 23.7957 21.0258 24.5587 21.5884 25.1213C22.151 25.6839 22.9141 26 23.7097 26C24.5054 26 25.2684 25.6839 25.831 25.1213C26.3936 24.5587 26.7097 23.7957 26.7097 23C26.7097 22.2044 26.3936 21.4413 25.831 20.8787C25.2684 20.3161 24.5054 20 23.7097 20Z" fill="#AEAEAE"/>
</svg>
