<svg width="51" height="50" viewBox="0 0 51 50" fill="none" xmlns="http://www.w3.org/2000/svg">
<rect x="1.20972" y="0.5" width="49" height="49" rx="24.5" stroke="#179750"/>
<path d="M20.6497 18C20.6494 18.5305 20.4384 19.0391 20.0632 19.4139C19.6879 19.7888 19.1791 19.9993 18.6487 19.999C18.1182 19.9988 17.6096 19.7878 17.2347 19.4125C16.8599 19.0373 16.6494 18.5285 16.6497 17.998C16.6499 17.4676 16.8609 16.959 17.2362 16.5841C17.6114 16.2092 18.1202 15.9988 18.6507 15.999C19.1811 15.9993 19.6897 16.2103 20.0646 16.5855C20.4395 16.9608 20.6499 17.4696 20.6497 18ZM20.7097 21.48H16.7097V34H20.7097V21.48ZM27.0297 21.48H23.0497V34H26.9897V27.43C26.9897 23.77 31.7597 23.43 31.7597 27.43V34H35.7097V26.07C35.7097 19.9 28.6497 20.13 26.9897 23.16L27.0297 21.48Z" fill="#AEAEAE"/>
</svg>
