<?xml version="1.0" encoding="UTF-8"?>
<svg id="Layer_1" data-name="Layer 1" xmlns="http://www.w3.org/2000/svg" viewBox="0 0 763.35 271.15">
  <defs>
    <style>
      .cls-1 {
        fill: #8cc344;
      }

      .cls-2 {
        fill: #126939;
      }
    </style>
  </defs>
  <g>
    <path class="cls-1" d="m317.19,89.93c3.85-1.13,17.11-1.11,21.2.11v26.96c2-.98,3.21-1.57,4.42-2.17,8.7-4.28,17.47-4.2,26.04.1,7.08,3.55,9.99,10.1,11.02,17.53.52,3.76.68,7.58.71,11.38.09,10.3.04,20.6.02,30.9,0,1.51-.14,3.02-.23,4.89h-20.98c-.12-1.55-.34-3.17-.34-4.8-.03-10.3,0-20.6-.02-30.9,0-1.55-.02-3.11-.23-4.64-.83-5.86-4.57-8.99-10.42-8.81-5.85.18-9.46,3.55-9.88,9.41-.17,2.39-.11,4.79-.11,7.19,0,9.17,0,18.34.01,27.51,0,1.52,0,3.05,0,4.97-7.31.67-14.1.68-21.21.14v-89.78Z"/>
    <path class="cls-1" d="m170.09,101.16c-5.01,5.01-9.75,9.76-14.75,14.76-.71-.52-1.66-1.08-2.44-1.81-9.64-9.01-24.94-7.91-33.78,2.85-12.41,15.09-5.46,35.65,9.26,42.19,7.88,3.5,15.42,2.38,22.4-2.59,1.58-1.13,3.03-2.45,4.86-3.94,1.65,1.52,3.19,2.89,4.67,4.33,2.72,2.66,5.43,5.35,8.08,8.08,2.15,2.21,2.13,2.9.02,4.8-18.5,16.69-44.22,15.36-61.33.62-22.35-19.24-22.51-57.96,5.93-76.47,17.15-11.16,41.34-8.66,55.91,5.65.39.38.68.87,1.19,1.53Z"/>
    <path class="cls-1" d="m249.65,179.99c-7.2-.16-14.03.77-20.85-.76-1.37-.31-3.03.05-4.42.5-9.18,2.96-18.35,3.04-27.42-.24-11.33-4.1-19.87-11.32-23.44-23.17-2.67-8.85-1.93-17.63,2.91-25.7,6.45-10.77,16.19-16.56,28.51-18.22,12.03-1.62,23.04.88,32.51,8.66,8.31,6.82,12.67,15.69,12.68,26.55,0,9.31,0,18.62-.04,27.94,0,1.36-.25,2.71-.43,4.45Zm-38.72-16.71c1.66-.24,3.39-.28,4.98-.77,11.4-3.48,15.68-14.81,10.47-23.61-4.9-8.28-17.31-10.97-25.27-5.54-9.29,6.34-9.34,16.62-4.42,22.73,3.64,4.53,8.27,7.1,14.23,7.18Z"/>
    <path class="cls-1" d="m420.84,181.97c-8.86-.36-19.73-4.96-27.92-15.3-10.16-12.82-9.24-33.47,5.8-45.8,15.95-13.08,41.79-12.14,56.28,3.19,13.47,14.25,12.52,38.36-6.55,51.01-7.28,4.83-14.8,7.01-27.62,6.9Zm4.61-18.72c9.27-.05,17.22-7.52,17.28-16.22.06-8.88-8.05-16.49-17.41-16.59-8.3-.09-18.04,6.69-17.62,16.71.37,9.07,7.95,16.16,17.76,16.11Z"/>
    <path class="cls-1" d="m470.4,114.6h20.59c.09,1.72.23,3.21.23,4.71.02,10.58-.03,21.16.04,31.74.02,2.23.21,4.54.79,6.68,1.02,3.72,4.11,5.64,8.06,5.42,4.26-.23,6.82-2.09,7.65-5.94.44-2.05.58-4.19.59-6.3.05-10.44.02-20.88.02-31.32,0-1.52,0-3.04,0-5.07,7.18-.3,13.87-.17,21.03-.1.16,1.59.42,2.94.42,4.28.03,11.57.01,23.14,0,34.7,0,4.56-.83,9-2.57,13.2-1.89,4.55-4.91,8.27-9.28,10.63-11.03,5.95-22.39,6.21-33.82,1.29-8.28-3.56-12.2-10.48-13.81-18.99-.18-.97-.33-1.96-.33-2.94-.04-13.54-.06-27.08-.07-40.62,0-.26.17-.53.46-1.38Z"/>
    <path class="cls-1" d="m579.47,131.82c-2.69.15-5.46.3-8.4.46-.17,1.41-.42,2.5-.42,3.59-.04,5.64-.08,11.29,0,16.93.09,5.53,2.57,8.35,8.06,9,2.48.29,5.02.05,7.92.05,0,.98.18,1.81-.03,2.53-1.43,5.02-2.96,10-4.41,15.01-.49,1.7-1.45,2.56-3.31,2.6-5.57.14-11-.45-16.14-2.72-9.07-4.02-12.74-11.65-13.28-20.95-.39-6.75-.13-13.54-.15-20.32,0-1.8,0-3.59,0-5.92h-13.67c1.1-6.29,3-11.68,4.56-17.56,2.82-.15,5.58-.29,8.73-.46.89-8.07-.1-16.1.61-24.5,6.89-.89,13.68-.22,20.95-.11.09,8.38.18,16.34.28,24.82h12.91c.49,3.53-1.84,12.83-4.21,17.53Z"/>
    <path class="cls-1" d="m255.77,172.68c3.55-4.54,6.82-8.73,10.25-13.12,1.19.66,2.19,1.1,3.06,1.72,4.6,3.29,9.78,4.16,15.27,3.79.56-.04,1.12-.12,1.67-.24,3.16-.72,4.88-2.22,5.02-4.37.14-2.08-1.32-3.49-4.85-4.42-3.82-1-7.72-1.69-11.48-2.86-2.8-.87-5.58-2.01-8.1-3.5-8.03-4.73-8.92-13.83-7.39-21.26,1.69-8.24,7.53-12.8,15.09-15.04,11.9-3.52,22.88-1.21,32.68,6.45.32.25.53.64,1.17,1.43-3.67,3.55-7.35,7.12-10.98,10.63-2.71-.96-5.02-2.13-7.46-2.55-2.59-.45-5.33-.44-7.93-.11-1.1.14-2.47,1.44-2.94,2.54-.66,1.55.28,3.07,1.74,3.91,1.2.69,2.53,1.23,3.87,1.61,4.88,1.38,9.88,2.37,14.66,4.04,7.57,2.64,11.49,8.07,11.72,16.29.3,11.04-4.62,18.68-15.15,22.16-13.12,4.34-25.57,2.67-37.2-4.84-.81-.52-1.48-1.24-2.7-2.29Z"/>
  </g>
  <g>
    <path class="cls-2" d="m713.43,186c.58,1.45,1.01,2.6,1.48,3.72,3.98,9.44,16.14,11.14,22.48,3.14,2.15-2.71,2.84-6.36,2.09-11.56-.9.12-1.83.14-2.7.37-13.3,3.49-25.48,1.47-36.13-7.52-16.87-14.26-16.49-40.03.57-54.14,7.14-5.91,15.48-8.62,24.67-8.51,6.48.07,12.9.42,18.99,3.34,9.14,4.38,15.18,11.13,17.04,21.18.79,4.27,1.32,8.65,1.38,12.99.15,12.28-.08,24.56-.04,36.84.06,16.44-10.78,28.05-26.85,30.88-7.06,1.24-14.1,1.23-21.02-.29-9.43-2.07-16.55-7.56-21.32-16.02-.85-1.51-1.24-2.98.57-4,6.12-3.44,12.28-6.82,18.8-10.43Zm29.94-38.83c.05-8.76-7.15-15.83-16.23-15.94-9.24-.11-16.97,7.05-16.98,15.72-.01,8.76,7.45,15.78,16.76,16,8.24.2,17.07-7.55,16.45-15.79Z"/>
    <path class="cls-2" d="m682.74,180.06h-21.34c-.09-1.78-.24-3.28-.24-4.78-.03-10.86-.01-21.72-.06-32.59,0-1.82-.09-3.69-.49-5.45-1.04-4.62-3.85-6.57-8.61-6.23-3.84.28-6.44,2.95-6.9,7.26-.18,1.68-.18,3.38-.18,5.07,0,10.44.02,20.88,0,31.32,0,1.66-.14,3.32-.2,4.84-3.4,1.06-15.56,1.29-21.72.44-.16-1.05-.48-2.24-.48-3.42-.03-11.85-.15-23.7.05-35.55.1-5.78.87-11.52,3.9-16.69,3.32-5.66,8.32-9.21,14.45-10.99,8.6-2.51,17.23-2.44,25.77.62,10.56,3.78,15.89,11.76,16.36,22.42.62,14.08.16,28.2.15,42.31,0,.27-.16.54-.44,1.43Z"/>
    <path class="cls-2" d="m605.37,182.02c-7.05-.04-12.39-5.26-12.49-12.2-.09-6.33,5.66-11.95,12.32-12.02,6.83-.07,12.7,5.52,12.7,12.1,0,6.86-5.47,12.15-12.52,12.12Z"/>
  </g>
  <g>
    <path class="cls-2" d="m54.71,195.21c-.09-11.12,9.16-20.45,20.4-20.6,11.42-.15,21.07,9.06,21.05,20.4-.01,10.7-7.97,20.28-20.85,20.57-11.2.25-20.51-9.11-20.6-20.37Z"/>
    <path class="cls-2" d="m77.47,97.29c-11.36-.23-20.44-9.48-20.28-20.68.16-10.99,9.11-20.54,21.61-20.07,11.31.42,20.16,9.62,19.85,20.99-.3,11.12-9.81,19.99-21.18,19.76Z"/>
    <path class="cls-2" d="m135.25,73.59c-10.15.41-20.5-8.21-20.45-20.33.04-9.8,7.23-20.04,20.57-20.31,11.56-.23,20.93,9.08,20.92,20.42,0,11.27-9.87,20.87-21.04,20.22Z"/>
    <path class="cls-2" d="m135.38,238.1c-10.32.66-20.57-8.22-20.56-20.16.01-11.56,9-20.24,20.47-20.38,11.7-.14,20.95,8.78,20.99,20.26.04,10.65-8.69,20.77-20.9,20.28Z"/>
    <path class="cls-2" d="m182.52,66.24c0-11.4,8.96-20.38,20.38-20.43,11.72-.05,20.97,8.95,20.88,20.4-.08,11.42-8.58,20.14-20.44,20.51-11.5.36-20.84-9.05-20.83-20.48Z"/>
    <path class="cls-2" d="m55.39,155.16c-10.96.49-20.51-8.44-20.58-20.1-.07-11.54,9.02-20.43,20.73-20.55,10.98-.12,20.89,9.25,20.56,20.7-.32,11.45-8.97,19.99-20.72,19.95Z"/>
    <path class="cls-2" d="m11.75,126.1c1.59.47,3.57.78,5.29,1.64,5.85,2.9,6.38,10.36,1.05,14.14-3.41,2.41-7.18,3.09-11.22,1.88C2.81,142.52.02,139.2,0,135.64c-.02-3.85,2.75-7.47,6.81-8.67,1.47-.43,3.03-.55,4.94-.87Z"/>
    <path class="cls-2" d="m238.9,26.28c2.12,0,4.58,1.11,6.17,3.77,1.94,3.26,1.48,6.64-.36,9.62-2.6,4.22-6.43,6.59-11.64,6.1-4.6-.44-7.62-4.1-7.16-8.69.61-6.02,5.79-10.65,12.99-10.79Z"/>
    <path class="cls-2" d="m53.81,221.63c.09,7.3-7.52,13.37-14.31,11.41-3.76-1.08-6.05-4.29-5.84-8.18.33-6.21,6.9-11.83,13.03-11.16,4.35.48,7.07,3.5,7.12,7.93Z"/>
    <path class="cls-2" d="m145.14,10.57c-.32,3.15-.92,5.95-3.16,8.25-3.18,3.27-7.9,3.56-11.39.59-4.78-4.05-5.09-12.74-.61-17.14,3.88-3.81,10.76-2.71,13.32,2.31.93,1.83,1.24,3.98,1.84,5.98Z"/>
    <path class="cls-2" d="m37.69,45.68c.02-5.9,4.34-9.28,10.11-7.91,5.93,1.41,9.51,5.82,9.52,11.7,0,4.68-3.2,7.89-7.89,8-6.67.17-12.38-6.45-11.73-11.8Z"/>
    <path class="cls-2" d="m144.75,260.51c-.24,6.57-4.55,11.18-10.1,10.6-4.66-.49-8.14-4.93-8.31-10.59-.15-5.32,3.12-9.95,7.58-10.73,3.75-.66,7.92,1.66,9.47,5.49.67,1.66.92,3.49,1.36,5.24Z"/>
  </g>
</svg>