<svg width="764" height="272" viewBox="0 0 764 272" fill="none" xmlns="http://www.w3.org/2000/svg">
<g clip-path="url(#clip0_37_665)">
<path d="M713.43 186C714.01 187.45 714.44 188.6 714.91 189.72C718.89 199.16 731.05 200.86 737.39 192.86C739.54 190.15 740.23 186.5 739.48 181.3C738.58 181.42 737.65 181.44 736.78 181.67C723.48 185.16 711.3 183.14 700.65 174.15C683.78 159.89 684.16 134.12 701.22 120.01C708.36 114.1 716.7 111.39 725.89 111.5C732.37 111.57 738.79 111.92 744.88 114.84C754.02 119.22 760.06 125.97 761.92 136.02C762.71 140.29 763.24 144.67 763.3 149.01C763.45 161.29 763.22 173.57 763.26 185.85C763.32 202.29 752.48 213.9 736.41 216.73C729.35 217.97 722.31 217.96 715.39 216.44C705.96 214.37 698.84 208.88 694.07 200.42C693.22 198.91 692.83 197.44 694.64 196.42C700.76 192.98 706.92 189.6 713.44 185.99L713.43 186ZM743.37 147.17C743.42 138.41 736.22 131.34 727.14 131.23C717.9 131.12 710.17 138.28 710.16 146.95C710.15 155.71 717.61 162.73 726.92 162.95C735.16 163.15 743.99 155.4 743.37 147.16V147.17Z" fill="white"/>
<path d="M317.19 89.93C321.04 88.8 334.3 88.82 338.39 90.04V117C340.39 116.02 341.6 115.43 342.81 114.83C351.51 110.55 360.28 110.63 368.85 114.93C375.93 118.48 378.84 125.03 379.87 132.46C380.39 136.22 380.55 140.04 380.58 143.84C380.67 154.14 380.62 164.44 380.6 174.74C380.6 176.25 380.46 177.76 380.37 179.63H359.39C359.27 178.08 359.05 176.46 359.05 174.83C359.02 164.53 359.05 154.23 359.03 143.93C359.03 142.38 359.01 140.82 358.8 139.29C357.97 133.43 354.23 130.3 348.38 130.48C342.53 130.66 338.92 134.03 338.5 139.89C338.33 142.28 338.39 144.68 338.39 147.08C338.39 156.25 338.39 165.42 338.4 174.59C338.4 176.11 338.4 177.64 338.4 179.56C331.09 180.23 324.3 180.24 317.19 179.7V89.92V89.93Z" fill="white"/>
<path d="M170.09 101.16C165.08 106.17 160.34 110.92 155.34 115.92C154.63 115.4 153.68 114.84 152.9 114.11C143.26 105.1 127.96 106.2 119.12 116.96C106.71 132.05 113.66 152.61 128.38 159.15C136.26 162.65 143.8 161.53 150.78 156.56C152.36 155.43 153.81 154.11 155.64 152.62C157.29 154.14 158.83 155.51 160.31 156.95C163.03 159.61 165.74 162.3 168.39 165.03C170.54 167.24 170.52 167.93 168.41 169.83C149.91 186.52 124.19 185.19 107.08 170.45C84.7299 151.21 84.5699 112.49 113.01 93.98C130.16 82.82 154.35 85.32 168.92 99.63C169.31 100.01 169.6 100.5 170.11 101.16H170.09Z" fill="white"/>
<path d="M249.65 179.99C242.45 179.83 235.62 180.76 228.8 179.23C227.43 178.92 225.77 179.28 224.38 179.73C215.2 182.69 206.03 182.77 196.96 179.49C185.63 175.39 177.09 168.17 173.52 156.32C170.85 147.47 171.59 138.69 176.43 130.62C182.88 119.85 192.62 114.06 204.94 112.4C216.97 110.78 227.98 113.28 237.45 121.06C245.76 127.88 250.12 136.75 250.13 147.61C250.13 156.92 250.13 166.23 250.09 175.55C250.09 176.91 249.84 178.26 249.66 180L249.65 179.99ZM210.93 163.28C212.59 163.04 214.32 163 215.91 162.51C227.31 159.03 231.59 147.7 226.38 138.9C221.48 130.62 209.07 127.93 201.11 133.36C191.82 139.7 191.77 149.98 196.69 156.09C200.33 160.62 204.96 163.19 210.92 163.27L210.93 163.28Z" fill="white"/>
<path d="M420.84 181.97C411.98 181.61 401.11 177.01 392.92 166.67C382.76 153.85 383.68 133.2 398.72 120.87C414.67 107.79 440.51 108.73 455 124.06C468.47 138.31 467.52 162.42 448.45 175.07C441.17 179.9 433.65 182.08 420.83 181.97H420.84ZM425.45 163.25C434.72 163.2 442.67 155.73 442.73 147.03C442.79 138.15 434.68 130.54 425.32 130.44C417.02 130.35 407.28 137.13 407.7 147.15C408.07 156.22 415.65 163.31 425.46 163.26L425.45 163.25Z" fill="white"/>
<path d="M682.74 180.06H661.4C661.31 178.28 661.16 176.78 661.16 175.28C661.13 164.42 661.15 153.56 661.1 142.69C661.1 140.87 661.01 139 660.61 137.24C659.57 132.62 656.76 130.67 652 131.01C648.16 131.29 645.56 133.96 645.1 138.27C644.92 139.95 644.92 141.65 644.92 143.34C644.92 153.78 644.94 164.22 644.92 174.66C644.92 176.32 644.78 177.98 644.72 179.5C641.32 180.56 629.16 180.79 623 179.94C622.84 178.89 622.52 177.7 622.52 176.52C622.49 164.67 622.37 152.82 622.57 140.97C622.67 135.19 623.44 129.45 626.47 124.28C629.79 118.62 634.79 115.07 640.92 113.29C649.52 110.78 658.15 110.85 666.69 113.91C677.25 117.69 682.58 125.67 683.05 136.33C683.67 150.41 683.21 164.53 683.2 178.64C683.2 178.91 683.04 179.18 682.76 180.07L682.74 180.06Z" fill="white"/>
<path d="M470.4 114.6H490.99C491.08 116.32 491.22 117.81 491.22 119.31C491.24 129.89 491.19 140.47 491.26 151.05C491.28 153.28 491.47 155.59 492.05 157.73C493.07 161.45 496.16 163.37 500.11 163.15C504.37 162.92 506.93 161.06 507.76 157.21C508.2 155.16 508.34 153.02 508.35 150.91C508.4 140.47 508.37 130.03 508.37 119.59C508.37 118.07 508.37 116.55 508.37 114.52C515.55 114.22 522.24 114.35 529.4 114.42C529.56 116.01 529.82 117.36 529.82 118.7C529.85 130.27 529.83 141.84 529.82 153.4C529.82 157.96 528.99 162.4 527.25 166.6C525.36 171.15 522.34 174.87 517.97 177.23C506.94 183.18 495.58 183.44 484.15 178.52C475.87 174.96 471.95 168.04 470.34 159.53C470.16 158.56 470.01 157.57 470.01 156.59C469.97 143.05 469.95 129.51 469.94 115.97C469.94 115.71 470.11 115.44 470.4 114.59V114.6Z" fill="white"/>
<path d="M579.47 131.82C576.78 131.97 574.01 132.12 571.07 132.28C570.9 133.69 570.65 134.78 570.65 135.87C570.61 141.51 570.57 147.16 570.65 152.8C570.74 158.33 573.22 161.15 578.71 161.8C581.19 162.09 583.73 161.85 586.63 161.85C586.63 162.83 586.81 163.66 586.6 164.38C585.17 169.4 583.64 174.38 582.19 179.39C581.7 181.09 580.74 181.95 578.88 181.99C573.31 182.13 567.88 181.54 562.74 179.27C553.67 175.25 550 167.62 549.46 158.32C549.07 151.57 549.33 144.78 549.31 138C549.31 136.2 549.31 134.41 549.31 132.08H535.64C536.74 125.79 538.64 120.4 540.2 114.52C543.02 114.37 545.78 114.23 548.93 114.06C549.82 105.99 548.83 97.96 549.54 89.56C556.43 88.67 563.22 89.34 570.49 89.45C570.58 97.83 570.67 105.79 570.77 114.27H583.68C584.17 117.8 581.84 127.1 579.47 131.8V131.82Z" fill="white"/>
<path d="M255.77 172.68C259.32 168.14 262.59 163.95 266.02 159.56C267.21 160.22 268.21 160.66 269.08 161.28C273.68 164.57 278.86 165.44 284.35 165.07C284.91 165.03 285.47 164.95 286.02 164.83C289.18 164.11 290.9 162.61 291.04 160.46C291.18 158.38 289.72 156.97 286.19 156.04C282.37 155.04 278.47 154.35 274.71 153.18C271.91 152.31 269.13 151.17 266.61 149.68C258.58 144.95 257.69 135.85 259.22 128.42C260.91 120.18 266.75 115.62 274.31 113.38C286.21 109.86 297.19 112.17 306.99 119.83C307.31 120.08 307.52 120.47 308.16 121.26C304.49 124.81 300.81 128.38 297.18 131.89C294.47 130.93 292.16 129.76 289.72 129.34C287.13 128.89 284.39 128.9 281.79 129.23C280.69 129.37 279.32 130.67 278.85 131.77C278.19 133.32 279.13 134.84 280.59 135.68C281.79 136.37 283.12 136.91 284.46 137.29C289.34 138.67 294.34 139.66 299.12 141.33C306.69 143.97 310.61 149.4 310.84 157.62C311.14 168.66 306.22 176.3 295.69 179.78C282.57 184.12 270.12 182.45 258.49 174.94C257.68 174.42 257.01 173.7 255.79 172.65L255.77 172.68Z" fill="white"/>
<path d="M54.7101 195.21C54.6201 184.09 63.8701 174.76 75.1101 174.61C86.5301 174.46 96.1801 183.67 96.1601 195.01C96.1501 205.71 88.1901 215.29 75.3101 215.58C64.1101 215.83 54.8001 206.47 54.7101 195.21Z" fill="white"/>
<path d="M77.4701 97.29C66.1101 97.06 57.0301 87.81 57.1901 76.61C57.3501 65.62 66.3001 56.07 78.8001 56.54C90.1101 56.96 98.9601 66.16 98.6501 77.53C98.3501 88.65 88.8401 97.52 77.4701 97.29Z" fill="white"/>
<path d="M135.25 73.59C125.1 74 114.75 65.38 114.8 53.26C114.84 43.46 122.03 33.22 135.37 32.95C146.93 32.72 156.3 42.03 156.29 53.37C156.29 64.64 146.42 74.24 135.25 73.59Z" fill="white"/>
<path d="M135.38 238.1C125.06 238.76 114.81 229.88 114.82 217.94C114.83 206.38 123.82 197.7 135.29 197.56C146.99 197.42 156.24 206.34 156.28 217.82C156.32 228.47 147.59 238.59 135.38 238.1Z" fill="white"/>
<path d="M182.52 66.24C182.52 54.84 191.48 45.86 202.9 45.81C214.62 45.76 223.87 54.76 223.78 66.21C223.7 77.63 215.2 86.35 203.34 86.72C191.84 87.08 182.5 77.67 182.51 66.24H182.52Z" fill="white"/>
<path d="M55.39 155.16C44.43 155.65 34.88 146.72 34.81 135.06C34.74 123.52 43.83 114.63 55.54 114.51C66.52 114.39 76.43 123.76 76.1 135.21C75.78 146.66 67.13 155.2 55.38 155.16H55.39Z" fill="white"/>
<path d="M605.37 182.02C598.32 181.98 592.98 176.76 592.88 169.82C592.79 163.49 598.54 157.87 605.2 157.8C612.03 157.73 617.9 163.32 617.9 169.9C617.9 176.76 612.43 182.05 605.38 182.02H605.37Z" fill="white"/>
<path d="M11.7501 126.1C13.3401 126.57 15.3201 126.88 17.0401 127.74C22.8901 130.64 23.4201 138.1 18.0901 141.88C14.6801 144.29 10.9101 144.97 6.87011 143.76C2.81011 142.52 0.0201076 139.2 0.000107596 135.64C-0.0198924 131.79 2.75011 128.17 6.81011 126.97C8.28011 126.54 9.84011 126.42 11.7501 126.1Z" fill="white"/>
<path d="M238.9 26.28C241.02 26.28 243.48 27.39 245.07 30.05C247.01 33.31 246.55 36.69 244.71 39.67C242.11 43.89 238.28 46.26 233.07 45.77C228.47 45.33 225.45 41.67 225.91 37.08C226.52 31.06 231.7 26.43 238.9 26.29V26.28Z" fill="white"/>
<path d="M53.8098 221.63C53.8998 228.93 46.2898 235 39.4998 233.04C35.7398 231.96 33.4498 228.75 33.6598 224.86C33.9898 218.65 40.5598 213.03 46.6898 213.7C51.0398 214.18 53.7598 217.2 53.8098 221.63Z" fill="white"/>
<path d="M145.14 10.57C144.82 13.72 144.22 16.52 141.98 18.82C138.8 22.09 134.08 22.38 130.59 19.41C125.81 15.36 125.5 6.67001 129.98 2.27001C133.86 -1.53999 140.74 -0.439988 143.3 4.58001C144.23 6.41001 144.54 8.56001 145.14 10.56V10.57Z" fill="white"/>
<path d="M37.69 45.68C37.71 39.78 42.03 36.4 47.8 37.77C53.73 39.18 57.31 43.59 57.32 49.47C57.32 54.15 54.12 57.36 49.43 57.47C42.76 57.64 37.05 51.02 37.7 45.67L37.69 45.68Z" fill="white"/>
<path d="M144.75 260.51C144.51 267.08 140.2 271.69 134.65 271.11C129.99 270.62 126.51 266.18 126.34 260.52C126.19 255.2 129.46 250.57 133.92 249.79C137.67 249.13 141.84 251.45 143.39 255.28C144.06 256.94 144.31 258.77 144.75 260.52V260.51Z" fill="white"/>
</g>
<defs>
<clipPath id="clip0_37_665">
<rect width="763.35" height="271.15" fill="white"/>
</clipPath>
</defs>
</svg>
