<svg width="50" height="52" viewBox="0 0 50 52" fill="none" xmlns="http://www.w3.org/2000/svg">
<path d="M20.5664 4.33496L19.8828 3.90625C18.5449 3.08594 16.875 2.60938 15.4395 3.05664C13.8965 3.53711 12.666 4.72559 12.0215 6.51075L11.1035 6.03809C9.5215 5.22364 8.69337 5.21094 8.00685 5.51953C7.459 5.76465 6.88771 6.3545 6.24025 7.21582L14.2871 13.4375C15.5469 13.8477 17.3926 13.8379 19.2383 13.3594C21.0938 12.8809 22.9395 11.9434 24.2871 10.6836L27.3242 3.17383C24.6485 1.05957 22.207 2.28418 20.5664 4.33496ZM25.752 11.8066C24.0918 13.4863 21.6211 14.6191 19.6973 15.127C19.0235 15.3027 18.3496 15.4297 17.6953 15.498C17.334 16.0938 17.0313 16.6992 16.7969 17.3047C17.2656 19.6875 18.1445 21.6406 19.4629 23.2422L18.0567 24.4141C17.2461 23.4375 16.5235 22.3828 15.9766 21.2109C15.8887 23.4766 16.3965 25.8203 17.2266 28.2617L15.4981 28.8477C13.9746 24.3945 13.457 19.834 15.5957 15.5371C14.8731 15.4785 14.1895 15.3418 13.5547 15.1172L13.5254 15.1074C13.1055 15.5078 12.7051 15.9277 12.3242 16.3672C9.24123 19.9414 7.54298 24.6973 8.43166 28.3984C8.90724 30.3809 9.75978 32.2559 10.9863 33.8574C12.7832 33.8184 14.4824 33.8574 16.0254 34.4434C16.7578 34.3652 17.5098 34.3164 18.291 34.3164C21.0742 34.3164 23.5938 34.834 25.4981 35.7324C26.2403 36.084 26.9141 36.5039 27.4512 36.9824C27.4512 36.4648 27.5293 35.9082 27.6856 35.498C26.8164 34.6777 26.2695 33.6816 26.2695 32.5488C26.2695 30.9766 27.3145 29.6777 28.8281 28.7402C28.8281 28.291 28.916 27.8613 29.0723 27.4512C28.086 26.6016 27.4512 25.5469 27.4512 24.3164C27.4512 23.5449 27.7051 22.8418 28.1348 22.207C27.7051 21.582 27.4512 20.8789 27.4512 20.1074C27.4512 19.7266 27.5098 19.375 27.6172 19.0332C26.6699 18.1934 26.0742 17.1582 26.0742 15.9668C26.0742 14.7852 26.6602 13.7598 27.5977 12.9297C27.0215 12.4805 26.4063 12.0996 25.752 11.8066ZM36.6309 12.0313C34.0918 12.0313 31.7969 12.5684 30.2246 13.3594C28.6426 14.1504 27.9004 15.127 27.9004 15.9668C27.9004 16.8164 28.6426 17.793 30.2246 18.584C31.7969 19.375 34.0918 19.9121 36.6309 19.9121C37.7344 19.9121 38.7793 19.8047 39.7461 19.6289V17.9688C41.1035 17.7637 42.2266 17.3926 42.9492 16.9141V18.6328C44.1699 18.2813 45.3418 16.9824 45.3711 15.9668C45.3711 15.127 44.6289 14.1504 43.0469 13.3594C41.4649 12.5684 39.1797 12.0313 36.6309 12.0313ZM46.0547 18.6426C45.7324 18.9844 45.3516 19.3066 44.9219 19.5996L44.9414 22.4316C46.1719 21.6992 46.7481 20.8496 46.7481 20.1074C46.7481 19.6387 46.5235 19.1309 46.0547 18.6426ZM29.2774 20.1465C29.3067 20.9863 30.0488 21.9336 31.6016 22.7148C33.1836 23.5156 35.4688 24.043 38.0176 24.043C39.6094 24.043 41.1035 23.8281 42.3828 23.4766L42.4512 20.8203C40.7715 21.4063 38.7793 21.7285 36.6309 21.7285C33.8477 21.7285 31.3184 21.1719 29.4043 20.2148C29.3555 20.1953 29.3164 20.166 29.2774 20.1465ZM29.4727 23.5449C29.336 23.8086 29.2774 24.0723 29.2774 24.3164C29.2774 25.166 30.0195 26.1426 31.6016 26.9336C33.1836 27.7246 35.4688 28.252 38.0176 28.252C39.3067 28.252 40.5274 28.125 41.6309 27.8809V25.5371C40.4981 25.752 39.2871 25.8594 38.0176 25.8594C35.2246 25.8594 32.6953 25.3125 30.7813 24.3457C30.3028 24.1113 29.8633 23.8379 29.4727 23.5449ZM46.5528 23.5449C45.957 23.9648 45.4395 24.2773 44.834 24.541V26.7188C46.1328 25.9668 46.7481 25.0879 46.7481 24.3164C46.7481 24.0723 46.6895 23.8086 46.5528 23.5449ZM47.2852 27.1387C47.0899 27.334 46.875 27.5195 46.6406 27.7051V30.8691C47.6465 30.1855 48.1348 29.4336 48.1348 28.75C48.1348 28.2324 47.8516 27.6758 47.2852 27.1387ZM30.6738 28.5059C30.6641 28.5938 30.6543 28.6719 30.6543 28.75C30.6543 29.5996 31.3965 30.5664 32.9785 31.3574C34.5606 32.1582 36.8555 32.6855 39.3945 32.6855C40.8496 32.6855 42.2363 32.5098 43.4375 32.2168V29.2969C41.8457 29.8047 40 30.0781 38.0176 30.0781C35.2246 30.0781 32.6953 29.5215 30.7813 28.5645C30.7422 28.5449 30.7129 28.5254 30.6738 28.5059ZM29.3457 30.5957C28.4961 31.2305 28.0957 31.9238 28.0957 32.5488C28.0957 33.3984 28.8379 34.3652 30.4199 35.166C32.002 35.957 34.2871 36.4844 36.836 36.4844C37.7637 36.4844 38.6621 36.416 39.502 36.2891V34.5117H39.3945C36.6016 34.5117 34.0723 33.9551 32.1582 32.9883C30.9375 32.3828 29.9219 31.5723 29.3457 30.5957ZM45.2149 33.584C44.4434 33.8574 43.6035 34.082 42.7051 34.2285V35.4102C42.8906 35.332 43.0762 35.2539 43.252 35.166C44.209 34.6777 44.8535 34.1309 45.2149 33.584ZM46.1133 35.3613C45.7422 35.7324 45.3125 36.0645 44.834 36.3672V39.1602C46.1328 38.418 46.7481 37.5391 46.7481 36.7676C46.7481 36.3184 46.543 35.8301 46.1133 35.3613ZM12.0606 35.6348C11.0645 35.6445 9.99025 35.7715 8.87697 36.0352C6.64943 36.5527 4.73439 37.5 3.48439 38.5449C2.23439 39.5801 1.74611 40.6348 1.89259 41.3867C2.03908 42.1387 2.81056 42.832 4.31447 43.2324C5.81349 43.623 7.91017 43.6426 10.1367 43.125C11.0352 42.9102 11.875 42.6367 12.6465 42.3145V40.293C14.0723 39.6582 15.1367 38.8965 15.6152 38.1543V40.5371C16.7969 39.5215 17.2559 38.5059 17.1192 37.7637C16.9824 37.0117 16.2012 36.3184 14.6973 35.9277C13.9453 35.7324 13.0469 35.625 12.0606 35.6348ZM18.3692 36.1426C18.6328 36.5234 18.8184 36.9531 18.916 37.4316C19.0235 38.0176 18.9746 38.584 18.7988 39.1406C19.7656 39.3945 20.6445 39.7363 21.4063 40.166C21.836 40.4004 22.2363 40.6836 22.5879 40.9766C23.4668 40.7715 24.209 40.4785 24.7363 40.127V42.1387C26.3086 41.3965 27.0313 40.4883 27.0313 39.7656C27.0313 39.0332 26.3086 38.125 24.7266 37.3828C23.1543 36.6504 20.8887 36.1523 18.3692 36.1426ZM29.2871 36.6309C29.2774 36.6699 29.2774 36.7188 29.2774 36.7676C29.2774 37.6172 30.0195 38.584 31.6016 39.3848C33.1836 40.1758 35.4688 40.7031 38.0176 40.7031C39.3067 40.7031 40.5274 40.5664 41.6309 40.332V37.7051C40.1856 38.0957 38.5547 38.3105 36.836 38.3105C34.043 38.3105 31.5137 37.7539 29.5996 36.7969C29.4922 36.7383 29.3848 36.6797 29.2871 36.6309ZM29.5606 40.2734C29.3653 40.5957 29.2774 40.9082 29.2774 41.2109C29.2774 42.0605 30.0195 43.0273 31.6016 43.8281C33.1836 44.6191 35.4688 45.1465 38.0176 45.1465C39.3067 45.1465 40.5274 45.0098 41.6309 44.7754V42.1973C40.4981 42.4121 39.2871 42.5293 38.0176 42.5293C35.2246 42.5293 32.6953 41.9727 30.7813 41.0059C30.3418 40.791 29.9317 40.5469 29.5606 40.2734ZM46.4649 40.2734C45.8985 40.6543 45.4004 40.957 44.834 41.2012V43.6035C46.1328 42.8613 46.7481 41.9824 46.7481 41.2109C46.7481 40.9082 46.6602 40.5957 46.4649 40.2734ZM17.8906 40.8008C17.5488 41.2305 17.1485 41.6406 16.6992 42.0117C15.1758 43.291 13.0274 44.3262 10.5469 44.9023C9.66212 45.1074 8.78322 45.2344 7.93947 45.3027C8.25197 45.8203 8.80177 46.3281 9.60646 46.7773C10.9375 47.5293 12.8906 48.0371 15.0586 48.0371C16.0449 48.0371 16.9824 47.9297 17.8418 47.7441V45.7129C19.1895 45.5078 20.3223 45.1367 21.0449 44.6582V46.4551C22.0215 45.7715 22.4902 45 22.4902 44.2676C22.4902 43.418 21.8555 42.5098 20.5176 41.7578C19.7949 41.3574 18.8965 41.0254 17.8906 40.8008Z" fill="#35CF62"/>
</svg>
