<svg width="300" height="453" viewBox="0 0 300 453" fill="none" xmlns="http://www.w3.org/2000/svg">
<path opacity="0.2" d="M146.687 453C189.238 453 223.732 448.457 223.732 442.852C223.732 437.247 189.238 432.704 146.687 432.704C104.137 432.704 69.6431 437.247 69.6431 442.852C69.6431 448.457 104.137 453 146.687 453Z" fill="#178755"/>
<path d="M123.198 107.087L85.6828 188.17C85.1734 189.272 84.4439 190.259 83.5391 191.07C82.6342 191.881 81.573 192.5 80.4204 192.887C79.2679 193.274 78.0483 193.422 76.8365 193.322C75.6246 193.222 74.446 192.876 73.3728 192.305L63.5268 187.08L40.6849 174.961C38.6362 173.875 37.0911 172.035 36.3762 169.831C35.6614 167.628 35.8328 165.233 36.8544 163.153L39.7893 157.162C59.1389 165.701 60.5631 139.819 50.784 134.737L59.8484 116.239L75.2166 84.879C76.2427 82.7893 78.0452 81.182 80.2403 80.3994C82.4354 79.6168 84.8497 79.7206 86.9693 80.6888L118.803 95.2353C119.873 95.7236 120.835 96.418 121.635 97.2786C122.435 98.1391 123.057 99.1489 123.465 100.25C123.874 101.351 124.06 102.522 124.014 103.695C123.968 104.868 123.691 106.021 123.198 107.087Z" fill="#83AA9B"/>
<path d="M77.5535 195.887C75.6771 195.885 73.8302 195.421 72.1768 194.535L39.4982 177.193C36.8601 175.807 34.8692 173.447 33.9508 170.616C33.0324 167.784 33.2593 164.706 34.5831 162.04L37.5166 156.053C37.8039 155.466 38.3077 155.014 38.9221 154.79C39.5366 154.566 40.214 154.588 40.8122 154.852C44.9732 156.686 50.4745 157.758 53.0436 152.418C55.5496 147.211 53.7556 139.13 49.6156 136.979C49.0302 136.674 48.5873 136.153 48.381 135.527C48.1747 134.901 48.2215 134.219 48.5114 133.626L57.5757 115.128C57.602 115.074 57.6295 115.022 57.6597 114.971L72.9505 83.7685C74.253 81.0738 76.5649 78.999 79.3867 77.9922C82.2086 76.9855 85.3138 77.1277 88.0316 78.388L119.858 92.9319C121.231 93.5585 122.466 94.4497 123.493 95.5544C124.52 96.659 125.318 97.9552 125.842 99.3687C126.366 100.782 126.605 102.285 126.546 103.791C126.487 105.297 126.13 106.777 125.497 108.145L87.9817 189.228C87.3325 190.646 86.3973 191.916 85.2346 192.957C84.0719 193.999 82.7067 194.79 81.2241 195.281C80.0417 195.681 78.8019 195.886 77.5535 195.887ZM41.0378 160.363L39.127 164.263C38.387 165.753 38.2599 167.473 38.7728 169.055C39.2857 170.637 40.3979 171.956 41.8718 172.73L74.5596 190.075C75.329 190.484 76.174 190.733 77.0429 190.805C77.9118 190.876 78.7863 190.77 79.6126 190.493C80.439 190.215 81.1998 189.772 81.8486 189.19C82.4973 188.609 83.0202 187.901 83.3853 187.11L120.902 106.028C121.256 105.263 121.456 104.437 121.489 103.595C121.523 102.754 121.389 101.914 121.097 101.124C120.804 100.334 120.359 99.6099 119.785 98.9925C119.211 98.3752 118.521 97.877 117.754 97.5267L85.9241 82.9815C84.4043 82.2791 82.6688 82.2012 81.092 82.7646C79.5151 83.3279 78.2231 84.4875 77.4945 85.9932L62.1276 117.353C62.1014 117.407 62.0725 117.459 62.0437 117.511L54.0153 133.895C59.4838 138.562 60.6024 148.38 57.6046 154.61C56.4532 156.997 51.9971 164.08 41.0378 160.363Z" fill="#124F35"/>
<path d="M20.5208 207.765C20.5208 207.765 20.2795 223.086 28.1099 231.26C35.9402 239.435 50.4587 220.555 50.4587 220.555L44.8564 205.398" fill="#83AA9B"/>
<g opacity="0.68">
<path d="M100.17 97.1353L90.8785 93.241C89.8045 92.7908 88.5986 92.7687 87.5089 93.1794C86.4192 93.5901 85.5286 94.4022 85.0204 95.4487L51.3334 164.837C50.8133 165.908 50.7157 167.136 51.06 168.276C51.4042 169.416 52.1651 170.385 53.1916 170.991L75.4853 184.146C76.3494 184.655 77.3549 184.873 78.3528 184.768C79.3507 184.662 80.288 184.238 81.0259 183.559L81.7223 182.919" fill="#26CE92"/>
</g>
<path d="M32.8166 235.842C30.3132 235.842 28.0628 234.868 26.2819 233.007C17.83 224.179 17.9808 208.39 17.9913 207.726C18.0013 207.063 18.272 206.43 18.7451 205.965C19.2181 205.499 19.8555 205.238 20.5197 205.238H20.5603C21.2311 205.248 21.8704 205.524 22.3376 206.005C22.8049 206.486 23.0618 207.132 23.052 207.802C23.052 208.008 22.9497 222.206 29.9407 229.514C30.8325 230.445 31.8291 230.855 33.0723 230.781C37.9468 230.519 44.547 223.746 47.5908 220.088L42.4829 206.275C42.2506 205.647 42.2778 204.952 42.5587 204.343C42.8395 203.735 43.351 203.262 43.9805 203.03C44.61 202.798 45.3061 202.826 45.9155 203.106C46.5249 203.387 46.9978 203.897 47.2301 204.526L52.8311 219.682C52.9793 220.083 53.0235 220.514 52.9595 220.936C52.8955 221.358 52.7254 221.757 52.4652 222.096C51.4161 223.452 42.0292 235.36 33.3477 235.83C33.1694 235.837 32.9923 235.842 32.8166 235.842Z" fill="#124F35"/>
<g opacity="0.68">
<path d="M64.6113 200.829L62.2049 205.398L12.3287 210.989C12.3287 210.989 7.50666 202.025 12.3287 183.714C17.1507 165.402 28.4693 147.171 39.7893 130.837C50.9059 114.799 59.5375 116.172 59.8536 116.236L50.7892 134.734C60.5683 139.816 59.1441 165.698 39.7945 157.16L36.8596 163.15C35.8381 165.23 35.6666 167.625 36.3815 169.829C37.0963 172.032 38.6415 173.872 40.6902 174.959L63.532 187.078L64.6113 200.829Z" fill="#26CE92"/>
</g>
<g opacity="0.6">
<path d="M59.8483 116.239L57.8524 120.298C54.2172 121.518 48.5717 124.946 42.0803 134.309C30.7603 150.643 19.4417 168.878 14.6197 187.185C11.5549 198.821 12.3903 206.68 13.3974 210.866L12.3287 210.989C12.3287 210.989 7.50666 202.025 12.3287 183.714C17.1507 165.403 28.4693 147.171 39.7893 130.837C50.9059 114.802 59.5375 116.186 59.8483 116.239Z" fill="white"/>
</g>
<path d="M12.3274 213.518C11.8702 213.518 11.4215 213.394 11.0289 213.16C10.6364 212.925 10.3147 212.589 10.0981 212.187C9.88169 211.785 4.86299 202.127 9.88038 183.073C14.9384 163.863 26.7856 145.161 37.7069 129.402C49.5487 112.321 59.2413 113.558 60.3074 113.755C60.6911 113.826 61.0531 113.984 61.3652 114.218C61.6773 114.452 61.9309 114.755 62.1064 115.103C62.2819 115.451 62.3744 115.835 62.3767 116.224C62.379 116.614 62.2911 116.999 62.1198 117.349L54.014 133.891C59.4826 138.558 60.6012 148.376 57.6033 154.606C56.4519 156.997 51.9958 164.08 41.0365 160.368L39.1258 164.269C38.3855 165.758 38.2584 167.478 38.7716 169.06C39.2847 170.643 40.3975 171.962 41.8718 172.735L64.7137 184.854C65.0893 185.054 65.4086 185.344 65.6419 185.7C65.8753 186.055 66.0152 186.463 66.0487 186.886L67.1319 200.635C67.1699 201.111 67.0716 201.587 66.8487 202.009L64.4422 206.578C64.25 206.943 63.9711 207.255 63.6301 207.488C63.289 207.72 62.8961 207.866 62.4856 207.912L12.6068 213.502C12.514 213.512 12.4208 213.518 12.3274 213.518ZM55.3766 119.616C52.2214 120.955 47.4361 124.247 41.8692 132.278C31.1984 147.675 19.6345 165.904 14.7745 184.358C11.4042 197.162 12.9897 205.114 13.9798 208.264L60.5894 203.037L62.0319 200.299L61.1139 188.659L39.4982 177.193C36.8602 175.807 34.8692 173.447 33.9508 170.616C33.0324 167.784 33.2593 164.706 34.5831 162.04L37.5167 156.053C37.804 155.466 38.3077 155.014 38.9221 154.79C39.5366 154.566 40.214 154.588 40.8122 154.852C44.9733 156.686 50.4746 157.758 53.0436 152.418C55.5497 147.211 53.7557 139.13 49.6156 136.979C49.03 136.674 48.5869 136.153 48.3806 135.527C48.1743 134.901 48.2212 134.219 48.5114 133.626L55.3766 119.616Z" fill="#124F35"/>
<path opacity="0.3" d="M201.71 368.278C201.71 368.278 201.5 369.043 201.125 370.335C199.563 375.69 195.092 390.075 190.634 395.704C186.282 401.183 147.632 406.956 115.943 400.68H115.935C109.127 399.33 102.635 397.425 96.8742 394.84C93.7848 393.439 91.3434 390.918 90.0431 387.789C87.7298 382.26 84.4408 372.271 84.1313 359.611C83.6514 339.883 201.71 368.278 201.71 368.278Z" fill="#0B6B44"/>
<path d="M92.9255 230.479C92.9255 230.479 73.589 253.757 71.9629 253.656C70.3367 253.555 12.3285 259.523 28.0495 232.277C35.076 220.099 42.9115 212.212 49.4252 207.218C57.4851 201.024 63.528 199.257 63.528 199.257L88.3435 208.517L88.7775 210.612L92.9255 230.479Z" fill="white"/>
<path d="M88.7764 210.616L81.7171 216.268L50.4627 208.039C50.4627 208.039 50.0574 207.737 49.428 207.225C57.4878 201.031 63.5307 199.263 63.5307 199.263L88.3462 208.524L88.7764 210.616Z" fill="#199965"/>
<path d="M58.5868 256.669C40.0765 256.669 28.6359 253.327 24.5102 246.695C21.8612 242.437 22.315 237.163 25.8583 231.022C41.9019 203.218 61.9702 197.086 62.816 196.838C63.3405 196.686 63.9003 196.706 64.412 196.897L89.2275 206.157C89.8517 206.395 90.3564 206.869 90.6316 207.477C90.9067 208.085 90.9299 208.777 90.6962 209.401C90.4625 210.026 89.9907 210.533 89.3839 210.812C88.7771 211.091 88.0844 211.119 87.4571 210.89L63.4967 201.954C59.8536 203.328 43.5149 210.548 30.2423 233.549C27.7022 237.953 27.2261 241.481 28.809 244.034C30.5767 246.877 38.1684 253.268 70.4025 251.219L71.2614 251.165C73.6311 249.217 82.9145 238.579 90.9782 228.872C91.1886 228.612 91.4488 228.396 91.7435 228.236C92.0383 228.077 92.3618 227.978 92.6953 227.945C93.0288 227.911 93.3655 227.944 93.6861 228.042C94.0066 228.14 94.3045 228.3 94.5624 228.514C94.8204 228.728 95.0332 228.99 95.1886 229.287C95.344 229.583 95.4388 229.908 95.4676 230.241C95.4964 230.574 95.4585 230.91 95.3563 231.229C95.254 231.547 95.0893 231.843 94.8718 232.097C94.8246 232.156 89.9632 238.004 84.9668 243.764C74.2435 256.125 73.2954 256.272 71.883 256.192C71.6889 256.192 71.2916 256.225 70.7238 256.262C66.3892 256.533 62.3435 256.669 58.5868 256.669Z" fill="#124F35"/>
<g opacity="0.2">
<path d="M102.141 370.335C102.141 370.335 98.9489 384.636 108.707 391.372C118.465 398.107 123.886 390.049 122.441 383.071C120.996 376.093 119.912 372.365 119.912 372.365" fill="white"/>
</g>
<path d="M146.078 405.936C132.064 405.936 112.006 404.409 95.833 397.151C92.1526 395.494 89.2445 392.497 87.7024 388.771C85.0888 382.529 81.9073 372.413 81.5965 359.679C81.5414 357.445 82.4896 355.476 84.34 353.985C86.85 351.96 94.4849 345.802 149.796 355.143C176.663 359.681 202.047 365.763 202.3 365.823C202.629 365.902 202.938 366.046 203.21 366.247C203.483 366.448 203.712 366.701 203.884 366.991C204.057 367.282 204.169 367.604 204.215 367.938C204.26 368.273 204.239 368.614 204.15 368.94C203.918 369.795 198.405 389.976 192.61 397.276C188.719 402.174 169.907 405.115 154.075 405.774C151.746 405.868 149.045 405.936 146.078 405.936ZM103.246 355.139C93.2168 355.139 89.1515 356.599 87.524 357.91C86.7451 358.54 86.648 359.072 86.6598 359.554C86.9509 371.502 89.9291 380.975 92.3762 386.819C93.4218 389.36 95.3998 391.408 97.9063 392.542C130.972 407.381 184.77 399.012 188.647 394.133C192.392 389.419 196.565 376.902 198.557 370.129C191.468 368.484 170.686 363.79 148.933 360.117C126.799 356.379 112.49 355.139 103.246 355.139Z" fill="#124F35"/>
<path d="M233.157 298.411C227.33 322.049 215.374 350.782 209.794 363.593C208.883 365.677 207.448 367.489 205.628 368.855C203.808 370.221 201.665 371.094 199.407 371.388C148.888 378.066 106.753 371.23 85.7615 364.121C78.4977 361.667 73.7622 359.176 72.085 357.206C65.3339 349.267 67.6406 324.488 67.6406 324.488C67.6406 324.488 74.254 299.227 74.6081 267.275C74.9622 235.324 85.212 203.601 85.212 203.601L85.2199 203.593L104.129 196.737C104.129 196.737 154.454 204.654 193.681 214.752C214.847 220.201 232.787 226.286 237.854 232.104C241.968 236.831 243.992 241.688 244.592 246.95C246.11 260.173 238.7 275.921 233.157 298.411Z" fill="white"/>
<path d="M244.592 246.95L243.681 247.361C216.393 253.662 113.273 232.104 85.2119 203.601L85.2198 203.593L104.129 196.737C104.129 196.737 223.397 215.503 237.854 232.104C241.969 236.831 243.992 241.688 244.592 246.95Z" fill="#0B6B44"/>
<g opacity="0.3">
<path d="M233.157 298.411C227.33 322.049 215.374 350.782 209.794 363.593C208.883 365.677 207.448 367.489 205.628 368.855C203.808 370.221 201.665 371.094 199.407 371.388C148.888 378.066 106.753 371.23 85.7615 364.121C174.721 342.027 185.21 243.089 185.21 243.089C198.337 230.978 169.409 221.999 169.409 221.999L193.681 214.752C214.847 220.201 232.787 226.286 237.854 232.104C241.968 236.831 243.992 241.687 244.592 246.95C246.11 260.173 238.7 275.921 233.157 298.411Z" fill="#0B6B44"/>
</g>
<g opacity="0.2">
<path d="M127.527 210.007L118.709 222.6C118.709 222.6 150.029 234.99 150.029 234.268V216.833" fill="white"/>
</g>
<g opacity="0.6">
<path d="M242.076 238.356C241.736 237.91 241.368 237.469 240.985 237.022C226.528 220.421 107.259 201.656 107.259 201.656L88.3489 208.512V208.52C88.3489 208.52 78.1056 240.241 77.745 272.193C77.3843 304.146 70.7762 329.407 70.7762 329.407C70.7762 329.407 69.0557 347.87 72.9309 358.018C72.6268 357.772 72.3458 357.499 72.0916 357.202C65.3405 349.263 67.6472 324.484 67.6472 324.484C67.6472 324.484 74.2606 299.223 74.6147 267.271C74.9688 235.32 85.2186 203.597 85.2186 203.597L85.2265 203.59L104.135 196.733C104.135 196.733 223.404 215.499 237.861 232.1C239.641 234.166 241.036 236.231 242.076 238.356Z" fill="white"/>
</g>
<path d="M158.179 376.652C139.355 376.652 123.729 374.925 112.28 373.037C91.3715 369.592 74.4441 363.886 70.1584 358.843C62.9313 350.338 64.8787 326.9 65.1253 324.255C65.1377 324.119 65.1614 323.983 65.1961 323.851C65.2617 323.6 71.7334 298.489 72.0835 267.246C72.4416 235.282 82.7058 203.148 82.8068 202.822C82.9254 202.456 83.126 202.122 83.3935 201.845C83.661 201.568 83.9882 201.355 84.3503 201.223L103.265 194.359C103.667 194.213 104.099 194.171 104.522 194.238C104.821 194.285 134.771 199.017 166.1 205.721C209.216 214.946 233.312 223.032 239.764 230.441C251.789 244.25 247.341 258.939 241.185 279.27C239.408 285.14 237.393 291.794 235.613 299.013C229.654 323.189 217.193 352.932 212.113 364.598C211.022 367.077 209.31 369.234 207.143 370.862C204.976 372.49 202.426 373.534 199.739 373.895C185.961 375.723 172.078 376.645 158.179 376.652ZM70.1414 324.916C69.5394 331.677 69.0923 349.796 74.0113 355.574C76.4885 358.489 90.2529 364.286 113.1 368.052C131.84 371.141 161.965 373.792 199.074 368.883C200.896 368.64 202.625 367.932 204.094 366.83C205.564 365.727 206.725 364.266 207.467 362.586C212.496 351.038 224.827 321.61 230.694 297.81C232.506 290.461 234.542 283.741 236.333 277.811C242.234 258.332 246.128 245.468 235.94 233.761C224.65 220.798 137.782 204.623 104.373 199.334L87.2511 205.548C85.4414 211.538 77.4445 239.52 77.1324 267.303C76.7993 297.662 70.7774 322.388 70.1414 324.916Z" fill="#124F35"/>
<path d="M213.279 330.444C213.279 330.444 202.436 347.405 182.199 350.111C161.961 352.818 169.549 326.473 169.549 326.473C169.549 326.473 175.874 318.715 180.392 312.4C184.91 306.084 181.114 301.459 193.041 305.305C204.969 309.151 217.616 320.699 213.279 330.444Z" fill="#83AA9B"/>
<path d="M179.406 352.834C175.056 352.834 171.649 351.436 169.25 348.662C162.778 341.172 166.934 326.401 167.115 325.776C167.209 325.448 167.369 325.143 167.585 324.879C167.648 324.801 173.912 317.107 178.33 310.93C179.441 309.377 179.968 307.919 180.428 306.629C181.113 304.729 181.889 302.576 184.382 301.719C186.387 301.028 189.031 301.361 193.813 302.897C203.262 305.945 212.087 313.044 215.271 320.162C217.024 324.081 217.133 327.99 215.586 331.465C215.534 331.58 215.474 331.692 215.407 331.799C214.938 332.531 203.689 349.781 182.528 352.611C181.493 352.754 180.45 352.828 179.406 352.834ZM171.847 327.651C170.828 331.549 169.355 341.058 173.086 345.366C174.868 347.424 177.737 348.156 181.86 347.608C199.646 345.228 209.924 330.881 211.046 329.234C211.922 327.12 211.79 324.763 210.652 322.227C208.05 316.413 200.314 310.311 192.257 307.709C187.046 306.029 186.094 306.456 185.998 306.508C185.791 306.673 185.429 307.676 185.19 308.342C184.666 309.782 183.961 311.746 182.444 313.87C178.533 319.338 173.226 325.944 171.847 327.651Z" fill="#124F35"/>
<path d="M284.839 125.283L270.578 212.622C270.578 212.622 265.323 238.245 221.952 233.192C184.083 228.782 138.219 215.56 113.96 205.065C113.873 205.029 113.815 205.008 113.779 204.993C113.765 204.993 113.757 204.985 113.743 204.979C110.309 203.491 107.317 202.055 104.851 200.713C84.9734 189.886 64.7346 174.715 79.914 139.717C95.0934 104.718 113.887 68.261 128.706 55.6328C143.524 43.0046 170.992 42.6406 170.992 42.6406C170.992 42.6406 179.305 32.1756 198.337 34.5784C214.561 36.6355 246.71 50.9123 260.48 59.7104C260.483 59.7106 260.485 59.7115 260.488 59.7128C260.49 59.7142 260.493 59.716 260.494 59.7182C262.872 61.2411 264.708 62.599 265.807 63.695C269.566 67.4315 271.818 72.4186 272.132 77.7059C272.198 78.5684 272.189 79.4351 272.103 80.296C272.103 80.296 274.525 83.4072 277.264 89.0443C282.695 100.332 285.295 112.769 284.839 125.283Z" fill="white"/>
<g opacity="0.6">
<path d="M270.528 70.7489C269.817 69.7505 269.024 68.8136 268.157 67.948C260.682 60.4921 219.726 41.2434 200.687 38.8393C181.648 36.4352 173.342 46.9015 173.342 46.9015L161.056 61.4061C161.056 61.4061 151.71 73.8457 168.112 85.2181C167.541 84.9942 150.648 78.0935 154.735 66.0624C157.063 59.2049 162.629 52.168 167.063 47.3113C158.062 48.2135 141.452 51.0354 131.057 59.8911C116.238 72.5219 97.4459 108.971 82.2652 143.968C75.4643 159.645 75.7751 171.345 79.9742 180.455C73.7149 170.79 72.0088 157.943 79.9165 139.71C95.0933 104.713 113.887 68.261 128.706 55.6328C143.524 43.0046 170.992 42.6406 170.992 42.6406C170.992 42.6406 179.304 32.1756 198.337 34.5784C217.369 36.9812 258.333 56.2312 265.807 63.695C267.838 65.7067 269.443 68.1055 270.528 70.7489Z" fill="white"/>
</g>
<path d="M89.4373 118.656C75.3005 146.458 91.8411 162.454 91.8411 162.454C114.249 190.241 192.316 211.533 216.893 207.564C241.47 203.595 239.301 198.18 252.088 149.473C264.876 100.766 232.686 91.5689 232.686 91.5689C202.824 102.745 149.675 89.1896 153.499 67.2959C125.707 57.6729 116.629 69.6529 116.629 69.6529L89.4373 118.656Z" fill="#0B6B44"/>
<path d="M252.087 149.476C239.301 198.187 241.465 203.593 216.893 207.564C192.321 211.534 114.249 190.241 91.841 162.454C91.841 162.454 90.7919 161.443 89.4556 159.48C113.866 186.293 188.809 206.481 212.793 202.605C237.37 198.635 235.203 193.221 247.989 144.517C253.982 121.688 250.1 107.541 244.274 98.9487C251.971 106.618 259.417 121.555 252.087 149.476Z" fill="#199965"/>
<path d="M232.858 236.38C229.115 236.368 225.375 236.139 221.659 235.694C179.541 230.788 124.615 214.35 103.641 202.924C93.9131 197.633 83.1479 190.824 77.0591 180.562C70.211 169.017 70.3854 155.325 77.5928 138.708C88.598 113.332 109.66 68.545 127.063 53.7105C140.856 41.9544 164.403 40.3542 169.849 40.1473C172.529 37.4355 181.639 29.9246 198.657 32.0747C218.328 34.5626 259.793 54.1177 267.594 61.9062C269.915 64.2098 271.742 66.9617 272.962 69.9939C274.182 73.0261 274.771 76.2748 274.691 79.5417C277.407 83.3731 288.249 100.308 287.367 125.372C287.364 125.479 287.354 125.585 287.336 125.69L273.074 213.029C273.074 213.062 273.064 213.096 273.056 213.129C272.996 213.425 271.482 220.454 264.178 226.718C256.674 233.143 246.166 236.38 232.858 236.38ZM192.749 36.7454C179.231 36.7454 173.242 43.8832 172.965 44.2223C172.73 44.5109 172.435 44.7449 172.1 44.908C171.766 45.071 171.399 45.1592 171.027 45.1664C170.765 45.1664 144.285 45.6745 130.349 57.5536C113.722 71.727 93.0672 115.741 82.2351 140.716C67.7337 174.151 86.9312 188.069 106.063 198.489C126.63 209.69 180.681 225.834 222.246 230.676C262.069 235.313 267.758 213.596 268.092 212.14L282.317 125.035C283.18 98.9187 270.242 82.0126 270.111 81.845C269.906 81.5822 269.754 81.2814 269.666 80.96C269.578 80.6386 269.554 80.303 269.597 79.9725C269.633 79.6582 270.462 71.9155 264.015 65.4783C256.803 58.2765 216.488 39.4206 198.022 37.0872C196.273 36.8632 194.512 36.749 192.749 36.7454Z" fill="#124F35"/>
<path d="M207.498 98.2037C197.689 98.2037 188.358 97.1456 180.316 95.0728C166.021 91.3894 156.317 84.6432 152.243 75.5623C149.723 69.9474 150.717 63.1554 154.774 58.2581L169.043 41.0312C169.47 40.5149 170.086 40.1895 170.754 40.1264C171.422 40.0632 172.088 40.2677 172.605 40.6947C173.122 41.1216 173.448 41.7362 173.511 42.4032C173.574 43.0701 173.369 43.7348 172.942 44.2511L158.672 61.478C155.834 64.9061 155.122 69.6227 156.861 73.4973C164.511 90.5487 195.154 95.2588 222.124 92.3531C227.405 91.788 232.352 89.5002 236.199 85.8439L250.806 71.8539C250.862 71.7989 250.922 71.7466 250.984 71.6968C251.089 71.6143 261.58 63.5966 274.065 78.6839C274.281 78.939 274.445 79.2345 274.547 79.5533C274.648 79.8721 274.685 80.2079 274.656 80.5411C274.626 80.8744 274.531 81.1984 274.375 81.4945C274.219 81.7906 274.005 82.0527 273.747 82.2658C273.489 82.4789 273.191 82.6386 272.87 82.7357C272.549 82.8328 272.213 82.8653 271.879 82.8314C271.546 82.7975 271.223 82.6978 270.928 82.5381C270.634 82.3784 270.374 82.1619 270.164 81.9012C261.391 71.2948 255.009 75.0607 254.186 75.6159L239.698 89.4894C235.045 93.9194 229.058 96.6937 222.666 97.3827C217.628 97.9259 212.565 98.1999 207.498 98.2037Z" fill="#124F35"/>
<path d="M116.628 71.8069C116.225 71.8075 115.831 71.696 115.488 71.4851C115.146 71.2741 114.869 70.9719 114.689 70.6126C114.509 70.2532 114.433 69.8508 114.47 69.4507C114.506 69.0505 114.653 68.6684 114.895 68.3474C115.305 67.8079 125.255 55.2334 154.206 65.2558C154.484 65.341 154.742 65.4813 154.964 65.6681C155.187 65.855 155.37 66.0847 155.502 66.3435C155.633 66.6024 155.712 66.885 155.732 67.1748C155.752 67.4645 155.714 67.7552 155.619 68.0298C155.524 68.3044 155.375 68.5571 155.181 68.773C154.986 68.9888 154.75 69.1634 154.487 69.2862C154.223 69.4091 153.937 69.4777 153.647 69.4881C153.356 69.4984 153.066 69.4503 152.795 69.3465C127.091 60.4423 118.436 70.8733 118.348 70.9806C118.143 71.2392 117.881 71.4479 117.583 71.591C117.285 71.7341 116.958 71.8079 116.628 71.8069Z" fill="#124F35"/>
<g opacity="0.2">
<path d="M103.701 183.149C99.8839 181.637 97.5011 177.802 97.5483 173.7C97.6008 169.085 98.8741 162.615 105.032 159.69C115.152 154.877 120.393 161.854 118.225 169.282C116.443 175.382 111.735 186.333 103.701 183.149Z" fill="white"/>
</g>
<path d="M209.947 210.204C196.052 210.204 174.467 206.034 152.879 198.976C123.287 189.302 100.462 176.524 90.2255 163.903C89.5121 163.178 85.5897 158.956 83.2751 151.635C80.9933 144.433 79.8747 132.692 87.5083 117.676C87.7691 117.164 88.223 116.777 88.7701 116.599C89.041 116.511 89.3266 116.477 89.6106 116.499C89.8947 116.521 90.1716 116.599 90.4255 116.728C90.6794 116.857 90.9054 117.034 91.0906 117.25C91.2758 117.467 91.4165 117.717 91.5047 117.988C91.5929 118.258 91.6269 118.543 91.6048 118.827C91.5826 119.11 91.5048 119.387 91.3756 119.64C78.1764 145.579 92.7329 160.289 93.3545 160.903C93.4168 160.964 93.4754 161.028 93.5302 161.096C103.219 173.11 125.342 185.416 154.228 194.86C179.099 202.99 204.725 207.333 216.546 205.425C236.513 202.2 237.378 198.762 245.658 165.867C246.907 160.905 248.323 155.279 249.986 148.925C255.006 129.807 253.491 114.195 245.61 103.775C239.689 95.9502 232.155 93.6757 232.08 93.6534C231.528 93.4947 231.061 93.1233 230.782 92.6209C230.504 92.1184 230.437 91.5262 230.596 90.9743C230.755 90.4225 231.127 89.9563 231.63 89.6783C232.133 89.4004 232.726 89.3334 233.279 89.4921C233.636 89.5942 242.093 92.0887 248.899 100.94C255.077 108.976 261.01 124.014 254.181 150.022C252.518 156.356 251.106 161.971 249.854 166.923C241.517 200.051 240.018 206.021 217.23 209.701C215.15 210.039 212.698 210.204 209.947 210.204Z" fill="#124F35"/>
<path d="M119.485 85.4956C119.485 85.4956 127.323 71.5109 135.059 79.5704C142.795 87.63 153.037 106.757 185.084 111.087C217.13 115.418 224.117 106.517 233.755 115.419C243.392 124.32 239.538 142.845 235.441 158.003C231.345 173.161 228.935 192.166 209.419 192.406C189.903 192.645 117.859 177.193 98.8242 147.63C98.8242 147.63 91.4253 140.057 102.81 115.517C102.813 115.517 111.538 97.4049 119.485 85.4956Z" fill="#199965"/>
<g opacity="0.3">
<path d="M235.448 158C231.35 173.157 228.942 192.169 209.426 192.406C190.184 192.644 119.858 177.617 99.6621 148.855C124.468 173.85 186.629 186.848 204.546 186.634C224.062 186.395 226.47 167.385 230.568 152.227C234.052 139.323 237.364 123.985 232.325 114.212C232.795 114.573 233.272 114.97 233.756 115.418C243.399 124.323 239.539 142.842 235.448 158Z" fill="#26CE92"/>
</g>
<g opacity="0.3">
<path d="M284.839 125.283L270.578 212.622C270.578 212.622 265.323 238.245 221.952 233.192C184.083 228.782 138.219 215.56 113.96 205.065C118.991 207.079 209.101 242.567 239.785 213.105C271.345 182.792 269.898 132.745 267.007 115.906C264.115 99.0666 265.807 82.4669 277.127 88.963C277.17 88.9918 277.213 89.0128 277.258 89.0495C282.69 100.335 285.292 112.77 284.839 125.283Z" fill="#124F35"/>
</g>
<path d="M297.223 175.352C295.48 193.126 281.361 205.287 266.405 203.413C251.448 201.539 241.77 186.579 243.997 168.859C246.224 151.14 259.209 138.088 274.173 139.875C290.26 141.792 299.116 156.048 297.223 175.352Z" fill="#26CE92"/>
<g opacity="0.3">
<path d="M297.223 175.352C295.48 193.128 281.363 205.289 266.405 203.413C257.528 202.301 250.509 196.577 246.734 188.408C250.236 191.29 254.489 193.115 258.993 193.669C273.943 195.546 288.065 183.384 289.811 165.607C290.576 157.768 289.578 150.76 287.042 145.08C294.749 151.208 298.523 162.086 297.223 175.352Z" fill="#124F35"/>
</g>
<g opacity="0.48">
<path d="M247.854 159.807C252.88 152.33 261.467 154.634 260.383 163.897C260.383 163.897 258.336 170.393 258.456 177.008C256.287 184.828 244.733 183.855 243.699 174.965" fill="white"/>
</g>
<path d="M269.447 206.129C268.325 206.128 267.205 206.058 266.091 205.919C258.109 204.92 251.199 200.491 246.637 193.451C242.166 186.553 240.342 177.707 241.488 168.544C243.926 149.147 258.412 135.456 274.476 137.368C291.629 139.412 301.782 154.775 299.74 175.603C298.788 185.32 294.181 194.134 287.103 199.782C281.899 203.929 275.733 206.129 269.447 206.129ZM271.489 142.244C259.2 142.244 248.469 153.574 246.51 169.176C245.506 177.164 247.06 184.807 250.884 190.709C254.622 196.47 260.245 200.097 266.722 200.909C272.772 201.669 278.891 199.862 283.945 195.833C289.963 191.031 293.884 183.477 294.705 175.108C296.486 156.951 288.309 144.107 273.876 142.387C273.084 142.292 272.287 142.244 271.489 142.244Z" fill="#1B3D30"/>
<path d="M277.005 201.168C276.297 201.169 275.589 201.125 274.887 201.037C263.084 199.56 255.67 186.704 257.626 171.133C259.593 155.444 270.162 144.222 281.688 145.586C294.189 147.065 301.145 159.073 299.409 176.175C298.546 184.676 294.736 192.188 288.957 196.784C285.352 199.642 281.18 201.168 277.005 201.168ZM279.773 149.802C271.201 149.802 263.512 159.06 261.929 171.669C260.281 184.791 266.083 195.568 275.427 196.739C279.169 197.207 282.914 196.05 286.255 193.393C291.126 189.52 294.348 183.084 295.093 175.735C296.568 161.201 291.106 151.059 281.178 149.884C280.712 149.827 280.243 149.797 279.773 149.795V149.802Z" fill="#1B3D30"/>
<g opacity="0.2">
<path d="M136.476 83.0575C136.476 83.0575 142.921 75.4785 150.874 80.5303C155.357 83.3796 161.775 87.3878 149.849 106.515C141.233 120.331 134.598 135.748 131.096 145.692C129.01 151.626 122.626 154.972 116.583 153.2C110.778 151.498 105.546 147.497 108.101 138.287C113.164 120.05 136.476 83.0575 136.476 83.0575Z" fill="white"/>
</g>
<path d="M208.956 194.574C187.86 194.574 116.529 178.81 97.0946 148.949C95.7255 147.361 89.7508 138.509 100.839 114.607C101.211 113.834 109.702 96.2592 117.634 84.359C118.308 83.1805 122.769 75.7482 128.902 74.9665C130.83 74.7216 133.734 75.0594 136.623 78.0698C137.942 79.4434 139.331 81.126 140.802 82.9147C148.206 91.883 159.396 105.437 185.371 108.946C199.888 110.91 209.157 110.112 215.927 109.53C223.993 108.838 229.321 108.379 235.225 113.833C245.352 123.185 242.318 140.861 237.533 158.57C237.094 160.195 236.682 161.834 236.245 163.571C232.622 177.993 228.508 194.342 209.443 194.575L208.956 194.574ZM129.933 79.2339C129.774 79.234 129.616 79.2445 129.458 79.2653C125.949 79.7118 122.361 84.8042 121.382 86.5536C121.354 86.6021 121.325 86.6505 121.294 86.6964C113.517 98.3503 104.854 116.276 104.77 116.456C94.3708 138.871 100.36 146.087 100.422 146.158C100.511 146.248 100.589 146.349 100.655 146.458C118.802 174.643 189.067 190.244 208.956 190.244H209.398C225.129 190.05 228.49 176.675 232.048 162.515C232.47 160.838 232.905 159.103 233.359 157.441C237.576 141.831 240.749 124.821 232.293 117.011C227.795 112.856 224.196 113.165 216.311 113.844C209.341 114.442 199.795 115.262 184.803 113.236C157.145 109.499 145.304 95.1579 137.462 85.6685C135.983 83.8758 134.708 82.3281 133.499 81.0724C132.317 79.8376 131.145 79.2339 129.933 79.2339Z" fill="#0D7048"/>
<path d="M110.459 119.352C110.688 119.714 110.995 120.02 111.356 120.25C111.718 120.48 112.126 120.627 112.551 120.681C112.976 120.735 113.408 120.695 113.816 120.563C114.224 120.431 114.597 120.211 114.91 119.918C122.558 112.924 133.972 114.363 134.733 127.891C134.756 128.282 134.858 128.664 135.033 129.014C135.208 129.364 135.453 129.675 135.752 129.928C136.051 130.181 136.398 130.371 136.773 130.486C137.147 130.601 137.542 130.639 137.931 130.598L138.67 130.519C140.359 130.34 141.493 128.981 141.401 127.428C140.205 107.375 121.132 104.035 110.699 115.953C110.3 116.42 110.062 117.001 110.018 117.613C109.975 118.225 110.13 118.835 110.459 119.352Z" fill="#43D69E"/>
<path d="M186.697 148.791L187.008 149.094C187.282 149.362 187.606 149.573 187.963 149.716C188.319 149.858 188.7 149.929 189.083 149.925C189.467 149.92 189.846 149.84 190.199 149.689C190.551 149.538 190.871 149.319 191.139 149.045C197.867 142.085 208.235 144.521 208.842 156.845C208.871 157.605 209.191 158.323 209.737 158.853C210.283 159.382 211.013 159.68 211.773 159.686H213.434C213.826 159.687 214.215 159.609 214.577 159.457C214.939 159.305 215.266 159.082 215.54 158.801C215.814 158.52 216.028 158.187 216.17 157.821C216.312 157.456 216.379 157.066 216.367 156.674C215.616 136.912 196.959 133.333 186.558 144.724C186.049 145.288 185.779 146.027 185.805 146.786C185.831 147.544 186.151 148.263 186.697 148.791Z" fill="#43D69E"/>
<g opacity="0.3">
<path d="M272.132 77.7045C267.997 74.0669 262.41 70.7095 257.133 72.5978C247.013 76.2066 238.982 91.6526 222.393 94.8791C205.804 98.1055 175.207 90.8945 175.207 90.8945L168.125 87.1194C168.125 87.1194 206.287 95.6949 224.122 85.1055C241.956 74.5161 245.148 64.0524 253.274 63.5613C261.399 63.0703 260.486 59.7142 260.486 59.7142C260.489 59.7145 260.492 59.7153 260.495 59.7167C260.497 59.718 260.499 59.7199 260.501 59.7221C262.878 61.245 264.714 62.6028 265.813 63.6988C269.569 67.4351 271.818 72.42 272.132 77.7045Z" fill="#124F35"/>
</g>
<g opacity="0.68">
<path d="M184.126 360.576C184.126 360.576 150.63 365.391 113.96 356.246C82.1039 348.299 79.2635 332.545 79.0681 328.551C79.0492 328.239 79.0492 327.926 79.0681 327.614L82.3216 314.868L92.8023 308.714C92.8023 308.714 147.015 306.44 167.501 309.328C167.995 309.399 168.485 309.498 168.968 309.624C187.798 314.565 184.126 360.576 184.126 360.576Z" fill="#26CE92"/>
</g>
<path d="M161.76 364.396C148.785 364.396 131.523 363.228 113.347 358.697C75.0121 349.138 76.4677 328.269 76.549 327.385C76.6071 326.717 76.9284 326.1 77.4421 325.669C77.9559 325.238 78.6201 325.029 79.2885 325.087C79.957 325.145 80.575 325.465 81.0066 325.978C81.4383 326.491 81.6481 327.155 81.59 327.822C81.5376 328.592 80.8163 345.38 114.573 353.796C145.246 361.442 174.007 359.149 181.74 358.317C182.527 344.307 181.261 313.822 167.148 311.833C148.301 309.177 99.644 310.979 93.5395 311.218L83.6043 317.043C83.3177 317.214 83 317.327 82.6695 317.375C82.339 317.423 82.0023 317.405 81.6787 317.322C81.3552 317.24 81.0512 317.094 80.7844 316.893C80.5176 316.693 80.2931 316.441 80.1241 316.154C79.955 315.866 79.8446 315.548 79.7993 315.218C79.754 314.887 79.7747 314.551 79.8602 314.229C79.9456 313.907 80.0942 313.604 80.2972 313.34C80.5002 313.075 80.7538 312.853 81.0432 312.686L91.5238 306.541C91.8829 306.331 92.2883 306.212 92.7041 306.195C94.9335 306.104 147.389 303.943 167.86 306.831C190.441 310.012 186.816 358.706 186.651 360.779C186.605 361.351 186.366 361.89 185.973 362.307C185.58 362.725 185.057 362.997 184.489 363.079C183.783 363.178 175.006 364.396 161.76 364.396Z" fill="#124F35"/>
<path d="M167.501 298.743V309.328L138.587 327.61C131.943 316.733 125.973 319.721 120.516 333.023L118.586 336.517C116.164 332.515 113.403 328.729 110.332 325.199C105.358 319.569 98.8084 314.135 92.5636 315.102C89.6431 315.557 87.3521 316.488 85.5516 317.649C79.7041 321.424 79.068 327.61 79.068 327.61L28.8167 313.861C27.3339 313.455 26.0257 312.574 25.0931 311.354C24.1605 310.133 23.6553 308.641 23.6551 307.106V299.938L21.8401 299.231C21.4869 299.094 21.146 298.928 20.8211 298.733H20.8146C19.9107 298.215 19.1237 297.516 18.5029 296.68C17.8821 295.844 17.4409 294.889 17.2069 293.875L3.11207 233.15C1.91871 228.025 6.54531 223.45 11.6637 224.683L96.4951 245.131C99.0928 245.757 101.438 247.159 103.216 249.15C104.995 251.141 106.123 253.627 106.45 256.275L109.717 282.713L167.501 298.743Z" fill="#B5B8C9"/>
<g opacity="0.6">
<path d="M106.45 256.275L106.782 258.989C106.082 256.873 104.853 254.97 103.211 253.461C101.569 251.951 99.5685 250.885 97.3987 250.364L12.5672 229.916C8.15701 228.855 4.1166 232.104 3.84252 236.297L3.11207 233.154C1.91871 228.029 6.54531 223.454 11.6637 224.687L96.4951 245.135C99.0922 245.761 101.437 247.162 103.215 249.152C104.994 251.143 106.122 253.627 106.45 256.275Z" fill="white"/>
</g>
<g opacity="0.6">
<path d="M167.501 297.481V302.461L110.62 286.684L109.984 281.523L167.501 297.481Z" fill="white"/>
</g>
<path d="M118.586 339.052C118.143 339.052 117.709 338.936 117.325 338.716C116.942 338.496 116.623 338.18 116.4 337.799C112.85 331.722 101.725 316.245 92.9519 317.608C82.5919 319.218 81.5939 327.791 81.5847 327.877C81.5473 328.242 81.4307 328.595 81.243 328.91C81.0553 329.226 80.8011 329.497 80.4979 329.704C80.1948 329.912 79.85 330.051 79.4876 330.112C79.1252 330.173 78.7539 330.154 78.3994 330.057L28.1467 316.308C26.1325 315.751 24.3563 314.55 23.0895 312.89C21.8226 311.23 21.1347 309.202 21.1308 307.115V301.673L20.9236 301.593C19.391 300.995 18.0275 300.032 16.9515 298.789C15.8754 297.546 15.1191 296.06 14.7482 294.459L0.646805 233.72C0.275868 232.126 0.31942 230.464 0.77331 228.892C1.2272 227.32 2.07633 225.89 3.23994 224.739C4.40354 223.587 5.84292 222.752 7.42115 222.312C8.99938 221.873 10.664 221.844 12.2566 222.228L97.0894 242.677C100.182 243.433 102.973 245.108 105.092 247.481C107.212 249.854 108.56 252.813 108.96 255.967L112.021 280.733L168.177 296.316C168.71 296.463 169.18 296.781 169.515 297.221C169.849 297.661 170.03 298.198 170.03 298.75V309.328C170.03 309.754 169.922 310.173 169.715 310.546C169.509 310.92 169.211 311.235 168.85 311.462L139.943 329.755C139.659 329.934 139.343 330.056 139.012 330.112C138.68 330.168 138.341 330.157 138.014 330.081C137.687 330.004 137.379 329.864 137.107 329.667C136.835 329.47 136.605 329.222 136.43 328.935C134.219 325.316 132.113 323.392 130.512 323.521C129.462 323.604 126.635 324.789 122.86 333.996C122.821 334.086 122.777 334.173 122.728 334.258L120.797 337.742C120.582 338.134 120.266 338.462 119.882 338.692C119.498 338.923 119.06 339.047 118.612 339.052H118.586ZM114.793 326.544C116.217 328.354 117.44 330.08 118.409 331.52C121.994 322.984 125.72 318.838 130.108 318.49C133.348 318.228 136.379 320.094 139.327 324.167L164.971 307.953V300.675L112.692 286.161L117.333 323.701C117.374 324.031 117.35 324.365 117.261 324.684C117.173 325.004 117.022 325.303 116.818 325.565C116.613 325.827 116.359 326.045 116.07 326.209C115.781 326.372 115.463 326.477 115.133 326.518C115.02 326.531 114.907 326.537 114.793 326.537V326.544ZM9.96296 227.005C9.28178 227.012 8.61092 227.172 7.99983 227.473C7.38873 227.773 6.85296 228.207 6.43201 228.742C6.01106 229.276 5.71566 229.899 5.56757 230.563C5.41948 231.227 5.42248 231.915 5.57634 232.578L19.6712 293.318C19.8571 294.119 20.2357 294.863 20.774 295.485C21.3123 296.107 21.9943 296.588 22.7609 296.888L24.5771 297.596C25.0517 297.782 25.4591 298.106 25.746 298.527C26.0329 298.947 26.1859 299.444 26.1849 299.953V307.119C26.1862 308.1 26.5095 309.054 27.1054 309.834C27.7013 310.615 28.5369 311.179 29.4844 311.44L77.2047 324.492C78.7311 319.982 82.9958 314.043 92.1756 312.617C99.5456 311.472 106.816 317.353 112.202 323.435L107.207 283.039C107.207 283.036 107.207 283.033 107.207 283.03L103.94 256.591C103.669 254.456 102.756 252.453 101.322 250.847C99.8874 249.241 97.9987 248.107 95.9052 247.594L11.0711 227.148C10.7087 227.056 10.3367 227.008 9.96296 227.005Z" fill="#124F35"/>
<path d="M86.1143 319.838C85.8847 319.839 85.6561 319.808 85.435 319.746L22.9773 302.388C22.3309 302.208 21.7824 301.78 21.4525 301.196C21.1225 300.613 21.0382 299.923 21.218 299.277C21.3979 298.632 21.8271 298.084 22.4113 297.755C22.9955 297.425 23.6869 297.341 24.3333 297.521L86.791 314.884C87.3808 315.047 87.8914 315.418 88.2281 315.928C88.5648 316.438 88.7049 317.053 88.6223 317.659C88.5397 318.264 88.24 318.819 87.7789 319.221C87.3177 319.623 86.7263 319.844 86.1143 319.844V319.838Z" fill="#124F35"/>
<path d="M115.945 327.015C115.375 327.015 114.822 326.823 114.375 326.47C113.928 326.117 113.614 325.624 113.482 325.07C113.351 324.517 113.411 323.935 113.652 323.419C113.893 322.904 114.301 322.485 114.81 322.229L166.375 296.483C166.673 296.335 166.996 296.246 167.328 296.223C167.659 296.199 167.992 296.241 168.307 296.346C168.622 296.451 168.914 296.617 169.165 296.834C169.416 297.051 169.621 297.316 169.77 297.613C169.919 297.909 170.007 298.233 170.031 298.563C170.054 298.894 170.013 299.227 169.908 299.541C169.802 299.856 169.636 300.147 169.419 300.398C169.201 300.648 168.936 300.854 168.639 301.002L117.067 326.743C116.719 326.919 116.335 327.012 115.945 327.015Z" fill="#124F35"/>
<g opacity="0.6">
<path d="M43.6658 263.137L42.5865 255.598C42.5687 255.311 42.6362 255.026 42.7806 254.778L45.3392 250.644C45.4446 250.463 45.6034 250.32 45.7938 250.233C45.9842 250.146 46.1969 250.12 46.4027 250.158L59.8589 252.852C60.0237 252.883 60.1789 252.952 60.3118 253.054C60.4447 253.156 60.5515 253.288 60.6235 253.44L63.3354 258.154C63.464 258.424 63.5397 258.717 63.5584 259.016L64.6075 267.604C64.6171 267.766 64.5889 267.928 64.5251 268.077C64.4614 268.226 64.3638 268.358 64.2401 268.463C64.1164 268.569 63.9699 268.644 63.8123 268.682C63.6546 268.721 63.49 268.723 63.3315 268.688L44.7949 264.46C44.4894 264.39 44.2145 264.223 44.0111 263.985C43.8077 263.747 43.6866 263.45 43.6658 263.137Z" fill="white"/>
</g>
<path d="M42.5812 261.693L41.5019 254.155C41.4838 253.868 41.5513 253.583 41.696 253.335L44.2545 249.2C44.3602 249.019 44.5191 248.876 44.7094 248.789C44.8998 248.703 45.1124 248.677 45.3181 248.715L58.7743 251.409C58.9391 251.44 59.0943 251.509 59.2272 251.611C59.3601 251.713 59.4668 251.845 59.5388 251.997L62.2508 256.711C62.3796 256.981 62.4552 257.274 62.4737 257.574L63.5229 266.161C63.5322 266.323 63.5039 266.484 63.44 266.633C63.3762 266.782 63.2786 266.915 63.1549 267.02C63.0312 267.125 62.8849 267.199 62.7273 267.238C62.5697 267.277 62.4053 267.279 62.2469 267.244L43.7103 263.016C43.4046 262.946 43.1297 262.779 42.9262 262.541C42.7228 262.303 42.6018 262.005 42.5812 261.693Z" fill="#124F35"/>
<path d="M113.827 317.746C113.415 317.746 113.016 317.605 112.695 317.347C112.374 317.089 112.151 316.73 112.062 316.329C111.974 315.927 112.025 315.507 112.208 315.139C112.391 314.77 112.694 314.475 113.067 314.302L125.132 308.738L111.363 303.171C111.138 303.085 110.932 302.956 110.758 302.79C110.584 302.625 110.445 302.426 110.349 302.206C110.252 301.985 110.201 301.748 110.198 301.508C110.195 301.268 110.24 301.03 110.33 300.807C110.42 300.584 110.554 300.382 110.724 300.212C110.893 300.041 111.095 299.907 111.318 299.815C111.54 299.724 111.779 299.678 112.019 299.68C112.26 299.682 112.498 299.732 112.719 299.826L130.349 306.958C130.676 307.09 130.956 307.314 131.157 307.604C131.357 307.893 131.469 308.235 131.477 308.586C131.486 308.938 131.391 309.285 131.205 309.584C131.019 309.882 130.749 310.12 130.429 310.268L114.583 317.577C114.347 317.688 114.088 317.745 113.827 317.746Z" fill="#124F35"/>
<path d="M122.414 307.111C122.006 307.111 121.611 306.973 121.292 306.721C120.973 306.468 120.748 306.116 120.654 305.72C120.561 305.324 120.604 304.909 120.776 304.54C120.948 304.172 121.24 303.873 121.604 303.69L129.848 299.583L110.248 293.239C109.792 293.091 109.413 292.769 109.195 292.342C108.977 291.916 108.938 291.421 109.086 290.965C109.234 290.51 109.557 290.132 109.984 289.915C110.41 289.697 110.907 289.658 111.362 289.805L135.167 297.51C135.508 297.62 135.809 297.83 136.031 298.112C136.252 298.393 136.385 298.735 136.412 299.092C136.438 299.449 136.358 299.806 136.181 300.118C136.003 300.429 135.737 300.681 135.416 300.841L123.22 306.92C122.97 307.045 122.694 307.111 122.414 307.111Z" fill="#124F35"/>
<g opacity="0.3">
<path d="M113.96 325.448L110.332 325.203C105.358 319.573 98.8084 314.139 92.5636 315.106C89.6431 315.561 87.3521 316.492 85.5515 317.653L36.5867 303.543L20.8211 298.744H20.8146L18.5957 293.453C76.0531 313.095 110.707 306.548 103.167 251.591L105.596 256.412L113.96 325.448Z" fill="#124F35"/>
</g>
<g opacity="0.3">
<path d="M75.029 314.204C68.1429 318.026 53.9851 317.815 23.6499 308.631L28.9479 312.587L77.7397 325.448L82.3177 317.873" fill="#124F35"/>
</g>
<g opacity="0.3">
<path d="M165.086 299.948C164.462 300.261 113.272 325.402 113.272 325.402C113.272 325.402 118.465 334.955 118.586 334.593C118.706 334.232 124.73 322.083 124.73 322.083L131.982 321.173L139.18 326.654L167.017 309.573" fill="#124F35"/>
</g>
<g opacity="0.2">
<path d="M27.6746 269.144L20.9314 267.703C20.3543 267.581 19.8258 267.292 19.4108 266.873C18.9958 266.455 18.7126 265.924 18.5958 265.346L14.3377 242.154C14.2265 241.6 14.2568 241.027 14.4258 240.488C14.5949 239.949 14.8973 239.461 15.3051 239.07C15.7128 238.678 16.2128 238.396 16.7589 238.248C17.3049 238.101 17.8794 238.093 18.4293 238.225L24.6099 239.72C25.2463 239.873 25.8243 240.207 26.2735 240.683C26.7227 241.158 27.0236 241.754 27.1395 242.397L30.8272 266.112C30.9012 266.537 30.8698 266.974 30.7355 267.384C30.6013 267.794 30.3683 268.165 30.0572 268.464C29.746 268.763 29.3661 268.982 28.9507 269.1C28.5353 269.219 28.0971 269.234 27.6746 269.144Z" fill="white"/>
</g>
<g opacity="0.2">
<path d="M30.4415 289.606L25.2235 287.773C24.6727 287.579 24.1818 287.245 23.7991 286.805C23.4163 286.364 23.1547 285.832 23.04 285.26L21.747 278.844C21.6793 278.509 21.6963 278.163 21.7965 277.836C21.8966 277.51 22.0768 277.213 22.3207 276.974C22.5646 276.734 22.8645 276.559 23.1932 276.465C23.522 276.37 23.8691 276.359 24.2033 276.432L30.97 277.908C31.7378 278.075 32.4385 278.466 32.9834 279.031C33.5283 279.597 33.8928 280.311 34.0308 281.083L34.8806 285.843C35.3212 288.377 32.8637 290.472 30.4415 289.606Z" fill="white"/>
</g>
<path d="M141.06 327.083L140.144 334.856L136.114 328.144L141.06 327.083Z" fill="#124F35"/>
<g opacity="0.3">
<path d="M184.127 360.576C184.127 360.576 150.63 365.391 113.96 356.246C82.104 348.299 79.2635 332.545 79.0681 328.551C80.7808 324.207 83.3472 321.422 83.3472 321.422C81.7211 326.112 83.7091 332.421 94.7327 341.63C105.756 350.839 161.775 357.689 173.161 347.405C184.546 337.12 170.269 317.314 170.269 317.314L139.367 331.237L137.56 326.473L168.968 309.627C187.798 314.565 184.127 360.576 184.127 360.576Z" fill="#124F35"/>
</g>
<path opacity="0.4" d="M171.852 340.909C172.316 344.561 166.886 348.256 159.724 349.158C152.563 350.06 146.381 347.839 145.916 344.182C145.452 340.525 152.867 335.752 160.028 334.845C167.19 333.937 171.388 337.257 171.852 340.909Z" fill="url(#paint0_linear_2_883)"/>
<g opacity="0.3">
<path d="M183.039 327.106L190.63 322.626L179.787 316.551L180.63 319.798" fill="#0B6B44"/>
</g>
<g opacity="0.3">
<path d="M195.44 323.454C195.44 323.454 200.629 336.999 185.211 340.488V348.186C195.276 347.496 203.538 343.08 208.947 332.789" fill="#0B6B44"/>
</g>
<path d="M230.954 250.635C214.479 250.635 189.874 247.041 164.216 240.633C146.044 236.095 101.817 223.552 83.6699 205.122C83.4687 204.919 83.3096 204.679 83.2016 204.415C83.0936 204.151 83.039 203.868 83.0408 203.583C83.0426 203.297 83.1008 203.015 83.2121 202.753C83.3234 202.49 83.4855 202.252 83.6892 202.052C83.8929 201.852 84.1342 201.694 84.3992 201.587C84.6641 201.481 84.9476 201.428 85.2332 201.431C85.5189 201.434 85.8011 201.493 86.0637 201.605C86.3263 201.718 86.5641 201.881 86.7634 202.085C98.8165 214.327 128.164 227.167 165.269 236.433C198.118 244.635 230.163 248.264 243.198 245.254C243.756 245.133 244.339 245.236 244.821 245.541C245.303 245.846 245.646 246.328 245.774 246.883C245.902 247.439 245.806 248.022 245.507 248.507C245.207 248.992 244.729 249.34 244.174 249.475C240.779 250.256 236.29 250.635 230.954 250.635Z" fill="#124F35"/>
<path d="M172.072 310.916L218.345 335.735C218.345 335.735 236.657 312.656 240.994 281.524C245.331 250.393 223.159 245.819 208.471 247.741C193.784 249.663 184.376 271.801 182.689 279.258C181.003 286.715 172.072 310.916 172.072 310.916Z" fill="white"/>
<g opacity="0.3">
<path d="M240.985 281.522C236.648 312.659 218.338 335.732 218.338 335.732L212.201 332.44C214.189 329.828 230.576 307.713 234.645 278.492C236.85 262.657 232.194 253.692 225.155 248.965C235.413 252.255 243.806 261.271 240.985 281.522Z" fill="#0B6B44"/>
</g>
<g opacity="0.6">
<path d="M235.195 255.134C228.376 250.436 219.242 249.793 211.956 250.746C197.252 252.674 187.856 274.81 186.172 282.266C184.691 288.84 177.57 308.429 175.907 312.969L172.072 310.912C172.072 310.912 180.99 286.719 182.683 279.255C184.376 271.791 193.764 249.662 208.46 247.744C217.087 246.606 228.3 247.723 235.195 255.134Z" fill="white"/>
</g>
<path d="M218.337 338.266C217.919 338.266 217.508 338.163 217.141 337.966L170.868 313.146C170.33 312.858 169.915 312.387 169.698 311.817C169.481 311.248 169.478 310.62 169.688 310.048C169.777 309.807 178.575 285.919 180.205 278.707C181.584 272.612 190.885 247.499 208.126 245.243C213.663 244.516 227.515 243.802 236.525 252.875C242.929 259.319 245.272 269.076 243.489 281.875C239.108 313.329 221.083 336.348 220.317 337.309C220.08 337.607 219.779 337.848 219.437 338.014C219.094 338.179 218.718 338.266 218.337 338.266ZM175.192 309.731L217.602 332.48C221.745 326.675 234.947 306.536 238.478 281.18C240.032 270.025 238.166 261.7 232.934 256.432C225.518 248.968 213.575 249.623 208.786 250.249C195.614 251.973 186.724 272.825 185.143 279.817C183.716 286.136 177.406 303.664 175.195 309.72L175.192 309.731Z" fill="#124F35"/>
<path d="M188.807 319.895L200.99 288.519C200.99 288.519 206.954 271.98 218.88 274.687C230.806 277.393 224.301 293.813 219.783 304.099C215.266 314.385 206.801 329.548 206.801 329.548L188.807 319.895Z" fill="#0B6B44"/>
<g opacity="0.3">
<path d="M225.487 281.616C224.625 281.137 223.697 280.789 222.733 280.584C210.806 277.878 204.843 294.42 204.843 294.42L193.891 322.626L188.81 319.899L200.99 288.516C200.99 288.516 206.954 271.98 218.88 274.687C223.015 275.625 224.931 278.209 225.487 281.616Z" fill="#1C4F39"/>
</g>
<path d="M206.801 331.719C206.443 331.717 206.091 331.627 205.776 331.457L187.781 321.804C187.315 321.554 186.957 321.143 186.773 320.647C186.59 320.152 186.594 319.607 186.785 319.114L198.968 287.738C199.219 287.038 205.724 269.482 219.361 272.577C222.752 273.347 225.171 275.123 226.552 277.855C229.905 284.488 226.233 294.806 221.774 304.969C217.267 315.229 208.791 330.45 208.701 330.602C208.513 330.941 208.238 331.223 207.903 331.42C207.569 331.616 207.188 331.719 206.801 331.719ZM191.522 318.898L205.939 326.632C208.326 322.273 214.299 311.199 217.798 303.235C220.124 297.938 225.571 285.537 222.678 279.808C221.899 278.263 220.498 277.281 218.4 276.804C208.5 274.56 203.083 289.113 203.029 289.261L191.522 318.898Z" fill="#124F35"/>
<path d="M178.928 293.688C178.694 293.688 178.461 293.649 178.238 293.575L153.075 285.146C152.644 285.002 152.27 284.726 152.004 284.358C151.739 283.989 151.596 283.547 151.596 283.093V265.223C100.785 249.737 100.328 249.387 99.9271 249.078C99.4966 248.752 99.2033 248.278 99.1045 247.748C99.0057 247.218 99.1085 246.67 99.3928 246.211C99.6772 245.753 100.123 245.417 100.642 245.269C101.161 245.121 101.717 245.172 102.201 245.412C104.371 246.24 134.498 255.48 154.395 261.544C154.839 261.679 155.228 261.953 155.504 262.326C155.781 262.699 155.93 263.15 155.93 263.614V281.531L179.614 289.463C180.102 289.627 180.515 289.958 180.781 290.398C181.047 290.838 181.147 291.358 181.064 291.865C180.982 292.372 180.721 292.833 180.329 293.166C179.938 293.499 179.44 293.682 178.926 293.682L178.928 293.688Z" fill="#124F35"/>
<path d="M150.602 391.979C140.106 391.976 129.627 391.155 119.26 389.523C99.278 386.367 86.7699 381.378 86.2467 381.167C85.7237 380.945 85.3089 380.527 85.0915 380.003C84.8741 379.478 84.8715 378.89 85.0842 378.363C85.2969 377.837 85.708 377.415 86.229 377.189C86.75 376.962 87.3393 376.948 87.8702 377.151C88.3672 377.351 138.228 396.979 195.971 382.005C196.52 381.882 197.095 381.977 197.576 382.27C198.056 382.563 198.403 383.03 198.545 383.574C198.686 384.118 198.611 384.695 198.334 385.184C198.057 385.674 197.6 386.036 197.061 386.195C180.474 390.497 164.597 391.979 150.602 391.979Z" fill="#124F35"/>
<g opacity="0.3">
<path d="M201.127 370.335C199.566 375.69 195.095 390.075 190.636 395.704C186.285 401.183 147.634 406.956 115.946 400.68C165.699 406.497 162.7 374.075 162.7 374.075L201.127 370.335Z" fill="#124F35"/>
</g>
<path d="M81.717 218.433C81.5298 218.433 81.3434 218.409 81.1623 218.361L49.9039 210.134C49.6284 210.062 49.3698 209.936 49.1431 209.763C48.9163 209.591 48.7257 209.376 48.5822 209.13C48.4386 208.884 48.345 208.613 48.3066 208.331C48.2683 208.049 48.2859 207.762 48.3585 207.487C48.431 207.212 48.5572 206.954 48.7297 206.727C48.9022 206.501 49.1177 206.311 49.3639 206.167C49.61 206.024 49.8821 205.931 50.1644 205.892C50.4468 205.854 50.7339 205.871 51.0094 205.944L82.2678 214.171C82.7768 214.306 83.2195 214.62 83.5132 215.056C83.807 215.493 83.9318 216.021 83.8643 216.542C83.7969 217.064 83.5419 217.543 83.1468 217.89C82.7517 218.238 82.2435 218.43 81.717 218.431V218.433Z" fill="#124F35"/>
<g opacity="0.3">
<path d="M83.1662 210.989C78.6511 229.745 63.254 234.326 34.8728 221.996L30.8691 228.877L75.867 240.155L78.2878 229.033" fill="#124F35"/>
</g>
<path d="M50.7813 137.268C50.3521 137.267 49.93 137.158 49.5549 136.95C49.1797 136.741 48.8638 136.441 48.6368 136.077C48.4098 135.714 48.2792 135.298 48.2572 134.87C48.2353 134.442 48.3227 134.015 48.5113 133.63L57.5166 115.266C57.709 114.807 58.033 114.415 58.4479 114.139C58.8628 113.863 59.35 113.716 59.8483 113.717C60.2779 113.716 60.7005 113.825 61.0762 114.033C61.4519 114.241 61.7684 114.542 61.9957 114.906C62.2231 115.269 62.3539 115.685 62.3758 116.114C62.3977 116.542 62.31 116.969 62.1209 117.354L53.0487 135.853C52.8411 136.276 52.5185 136.634 52.1178 136.884C51.717 137.134 51.254 137.267 50.7813 137.268Z" fill="#124F35"/>
<path d="M51.433 136.476L44.1338 135.8L50.1334 131.593L51.433 136.476Z" fill="#124F35"/>
<path d="M77.8642 186.97C76.6363 186.969 75.4314 186.637 74.3759 186.01L52.0822 172.856C50.5942 171.967 49.4921 170.555 48.9917 168.897C48.4913 167.239 48.6286 165.455 49.3768 163.893L83.0639 94.5045C83.8139 92.9576 85.1297 91.7571 86.7401 91.1504C88.3505 90.5438 90.1327 90.5773 91.7191 91.2441L101.01 95.1383C101.273 95.2485 101.511 95.4092 101.712 95.6113C101.912 95.8134 102.071 96.0529 102.178 96.3162C102.286 96.5795 102.341 96.8615 102.339 97.1459C102.338 97.4303 102.281 97.7117 102.17 97.9739C102.06 98.2361 101.899 98.4741 101.697 98.6742C101.494 98.8744 101.254 99.0327 100.991 99.1403C100.727 99.2478 100.445 99.3024 100.16 99.301C99.8748 99.2996 99.5931 99.2422 99.3304 99.1321L90.0379 95.2352C89.4757 94.9994 88.8444 94.9878 88.274 95.2029C87.7036 95.4181 87.2375 95.8434 86.9718 96.3914L53.2847 165.778C53.005 166.362 52.9535 167.028 53.1403 167.647C53.3271 168.266 53.7387 168.793 54.2945 169.125L76.5882 182.28C77.0506 182.554 77.5895 182.672 78.1244 182.615C78.6593 182.559 79.1615 182.331 79.5559 181.966L80.2523 181.325C80.4609 181.128 80.7067 180.975 80.9752 180.873C81.2438 180.772 81.5298 180.725 81.8168 180.735C82.1037 180.745 82.3858 180.811 82.6467 180.931C82.9077 181.05 83.1423 181.221 83.3369 181.431C83.5315 181.642 83.6822 181.889 83.7804 182.159C83.8785 182.428 83.9222 182.714 83.9087 183.001C83.8953 183.287 83.8251 183.568 83.7021 183.827C83.5791 184.086 83.4059 184.318 83.1924 184.51L82.4961 185.15C81.2369 186.318 79.5827 186.968 77.8642 186.97Z" fill="#124F35"/>
<path d="M55.3173 140.645C55.0086 140.645 54.7049 140.566 54.4354 140.416C54.1658 140.265 53.9393 140.049 53.7776 139.786C53.6158 139.523 53.5241 139.224 53.5113 138.916C53.4985 138.608 53.565 138.301 53.7043 138.026L78.3677 89.1018C83.2304 79.6464 91.1223 80.7673 91.4568 80.8197C91.9238 80.8992 92.3409 81.1588 92.6182 81.5424C92.8955 81.926 93.0108 82.4031 92.9393 82.8708C92.8677 83.3385 92.6151 83.7594 92.2358 84.0429C91.8564 84.3264 91.3808 84.4498 90.9112 84.3866C90.6568 84.3525 85.2027 83.7096 81.5885 90.7373L56.9343 139.65C56.7841 139.949 56.5532 140.201 56.2676 140.377C55.9819 140.553 55.6529 140.646 55.3173 140.645Z" fill="#124F35"/>
<path d="M44.5417 178.812C44.2467 178.813 43.9561 178.74 43.6958 178.602C37.8418 175.496 38.4503 169.959 39.5991 167.471L43.8572 158.054C44.0544 157.618 44.417 157.278 44.8654 157.108C45.3137 156.939 45.811 156.955 46.2478 157.152C46.6847 157.349 47.0253 157.711 47.1947 158.158C47.3642 158.606 47.3486 159.103 47.1514 159.539L42.8894 168.967C42.5851 169.657 41.2711 173.226 45.3915 175.412C45.7513 175.599 46.0376 175.902 46.2042 176.271C46.3708 176.641 46.408 177.055 46.3099 177.448C46.2118 177.841 45.984 178.19 45.6632 178.438C45.3425 178.687 44.9474 178.82 44.5417 178.816V178.812Z" fill="#124F35"/>
<g opacity="0.3">
<path d="M47.4583 178.554C56.6005 192.567 50.0798 202.797 27.8962 209.245H35.0171C35.0171 209.245 31.5695 212.735 34.4178 222.601C34.4178 222.601 52.6003 203.055 64.3596 197.641L63.5268 187.081" fill="#124F35"/>
</g>
<g opacity="0.3">
<path d="M72.0836 165.46C72.0836 165.46 74.5752 187.795 43.0886 174.342L44.1377 177.971L73.3818 192.305L79.9913 192.41L85.2211 187.535L76.8505 173.64" fill="#124F35"/>
</g>
<path d="M86.9169 47.9229C90.3256 42.3695 91.8074 35.8494 91.133 29.3708C89.4518 13.0108 74.8048 1.11065 58.4203 2.78934C42.0357 4.46803 30.1178 19.0944 31.799 35.4545C33.4802 51.8145 48.1271 63.7147 64.5117 62.036C68.9172 61.59 73.1671 60.1659 76.9503 57.8681L90.7514 60.9596L86.9169 47.9229Z" fill="white"/>
<g opacity="0.5">
<path d="M59.0064 8.48795C74.3116 6.91663 88.097 17.2022 91.2181 31.8993C91.224 30.8385 91.1732 29.7781 91.066 28.7226C89.3848 12.3626 74.7378 0.461118 58.3533 2.14112C41.9687 3.82112 30.0508 18.4449 31.7333 34.8049C31.843 35.865 32.0093 36.9184 32.2316 37.9607C32.2893 22.931 43.6958 10.058 59.0064 8.48795Z" fill="white"/>
</g>
<path d="M45.0451 35.0944C47.3983 35.0944 49.3059 33.1897 49.3059 30.84C49.3059 28.4904 47.3983 26.5857 45.0451 26.5857C42.692 26.5857 40.7844 28.4904 40.7844 30.84C40.7844 33.1897 42.692 35.0944 45.0451 35.0944Z" fill="#124F35"/>
<path d="M61.6345 35.0944C63.9876 35.0944 65.8952 33.1897 65.8952 30.84C65.8952 28.4904 63.9876 26.5857 61.6345 26.5857C59.2814 26.5857 57.3738 28.4904 57.3738 30.84C57.3738 33.1897 59.2814 35.0944 61.6345 35.0944Z" fill="#124F35"/>
<path d="M78.2236 35.0944C80.5767 35.0944 82.4843 33.1897 82.4843 30.84C82.4843 28.4904 80.5767 26.5857 78.2236 26.5857C75.8705 26.5857 73.9629 28.4904 73.9629 30.84C73.9629 33.1897 75.8705 35.0944 78.2236 35.0944Z" fill="#124F35"/>
<path d="M61.4059 64.8144C54.2802 64.8034 47.3561 62.4513 41.7022 58.1208C36.0483 53.7904 31.9787 47.7224 30.1216 40.8532C28.2645 33.984 28.7231 26.6955 31.4265 20.1124C34.1299 13.5292 38.9279 8.01744 45.0801 4.4275C51.2323 0.837572 58.3967 -0.630933 65.4678 0.248604C72.5388 1.12814 79.1235 4.30683 84.2056 9.29415C89.2877 14.2815 92.5848 20.8002 93.5881 27.8444C94.5914 34.8886 93.2451 42.0667 89.7569 48.271L93.2675 60.2222C93.3962 60.6596 93.4082 61.123 93.3025 61.5665C93.1968 62.01 92.977 62.4183 92.6647 62.7509C92.3525 63.0836 91.9587 63.3291 91.5224 63.4632C91.086 63.5972 90.6221 63.6153 90.1766 63.5154L77.3839 60.6504C73.5048 62.8379 69.2128 64.197 64.7801 64.6415C63.659 64.7563 62.5328 64.814 61.4059 64.8144ZM61.5174 5.25083C60.5726 5.25113 59.6285 5.29965 58.6887 5.39618C54.631 5.81368 50.7193 7.13715 47.2432 9.26859C43.7671 11.4 40.8156 14.2849 38.6074 17.7095C36.3991 21.1342 34.9905 25.0109 34.4859 29.0527C33.9814 33.0946 34.3937 37.1979 35.6925 41.0591C36.9912 44.9202 39.1431 48.4402 41.9888 51.3585C44.8345 54.2768 48.3011 56.5186 52.132 57.9179C55.963 59.3173 60.06 59.8383 64.1199 59.4425C68.1798 59.0467 72.0985 57.7441 75.586 55.6313C76.1657 55.278 76.8604 55.1638 77.5229 55.3131L86.9807 57.4305L84.4038 48.6573C84.3013 48.3064 84.2731 47.938 84.3212 47.5757C84.3693 47.2134 84.4926 46.8651 84.6831 46.553C87.1957 42.4395 88.567 37.7326 88.6566 32.9152C88.7462 28.0979 87.5507 23.3434 85.1929 19.1396C82.835 14.9358 79.3996 11.4339 75.2391 8.99325C71.0786 6.55257 66.3428 5.26093 61.5174 5.25083Z" fill="#124F35"/>
<g opacity="0.3">
<path d="M87.0884 47.6361C78.9171 54.5355 67.6667 57.5563 56.4923 54.7738C44.0983 51.694 34.9671 42.2713 31.6833 30.8347C31.6034 32.3736 31.6425 33.9163 31.8001 35.4492C33.4826 51.8092 48.1282 63.7107 64.5128 62.0307C68.9174 61.5861 73.1668 60.1638 76.95 57.868L90.7512 60.9595L86.9166 47.9228C86.9796 47.8338 87.0321 47.7316 87.0884 47.6361Z" fill="#124F35"/>
</g>
<path opacity="0.68" d="M129.67 170.91C156.452 170.91 178.164 149.231 178.164 122.488C178.164 95.746 156.452 74.0669 129.67 74.0669C102.887 74.0669 81.1755 95.746 81.1755 122.488C81.1755 149.231 102.887 170.91 129.67 170.91Z" fill="#26CE92" fill-opacity="0.25"/>
<path opacity="0.68" d="M203.632 196.051C230.415 196.051 252.126 174.372 252.126 147.63C252.126 120.887 230.415 99.208 203.632 99.208C176.85 99.208 155.138 120.887 155.138 147.63C155.138 174.372 176.85 196.051 203.632 196.051Z" fill="#26CE92" fill-opacity="0.25"/>
<defs>
<linearGradient id="paint0_linear_2_883" x1="151.883" y1="329.904" x2="160.358" y2="345.072" gradientUnits="userSpaceOnUse">
<stop stop-color="white"/>
<stop offset="1" stop-color="#F1F2F2"/>
</linearGradient>
</defs>
</svg>
