<svg width="24" height="24" viewBox="0 0 24 24" fill="none" xmlns="http://www.w3.org/2000/svg">
<path d="M12 22C17.5228 22 22 17.5228 22 12C22 6.47715 17.5228 2 12 2C6.47715 2 2 6.47715 2 12C2 17.5228 6.47715 22 12 22Z" fill="#5546FF"/>
<path d="M16.0802 17.2692L13.9275 13.89H17.0189V12.6134H6.88123V13.89H9.97259L7.8199 17.2692H9.4219L11.9501 13.3018L14.4782 17.2692H16.0802ZM17.0189 11.3744V10.0978H13.9901L16.1178 6.7561H14.5033L11.9501 10.7861L9.39687 6.7561H7.78235L9.91001 10.0978H6.88123V11.3869L17.0189 11.3744Z" fill="white"/>
</svg>
