<svg width="48" height="48" viewBox="0 0 48 48" fill="none" xmlns="http://www.w3.org/2000/svg">
<path d="M12.2537 8.11182L43.3265 29.3282L35.6418 40.6882L4.56897 19.3047L12.2537 8.11182Z" fill="url(#paint0_linear_1_550)"/>
<path d="M43.3265 29.3282C40.6535 33.1705 31.6324 31.667 23.1124 25.6529C14.4253 19.8059 9.74771 11.9541 12.2536 8.11176C14.9265 4.26942 23.9477 5.77295 32.4677 11.787C41.1547 17.467 45.8323 25.4858 43.3265 29.3282Z" fill="url(#paint1_linear_1_550)"/>
<path d="M35.6418 40.521C32.9689 44.3633 23.9477 42.8598 15.4277 36.8457C6.90775 30.8316 2.06306 23.1469 4.73599 19.1375C7.40893 15.2952 16.4301 16.7987 24.9501 22.8128C33.47 28.8269 38.1477 36.6787 35.6418 40.521Z" fill="url(#paint2_linear_1_550)"/>
<path d="M43.3265 29.3283L35.6418 40.6883C32.9689 44.5306 23.9477 42.86 15.4278 37.013C13.7572 35.8436 12.2536 34.6742 10.7501 33.3377C11.9195 33.1706 13.4231 32.5024 14.9266 30.8318C17.5995 27.9918 18.936 27.3236 20.1054 27.4907C21.2748 27.4907 22.6113 28.6601 24.783 31.5001C26.9548 34.34 29.9618 35.1753 31.7995 33.6718C31.9665 33.5048 32.1336 33.5048 32.3007 33.3377C33.8042 32.1683 34.3054 31.6671 37.1454 26.3212C37.8136 24.9848 40.1524 22.813 43.3265 23.8154C44.1618 25.9871 44.1618 27.8248 43.3265 29.3283Z" fill="#0E0F23"/>
<path fill-rule="evenodd" clip-rule="evenodd" d="M42.1571 28.66C39.8182 32.0012 31.6324 30.3306 23.7806 24.8177C15.7618 19.3047 11.0842 12.2883 13.423 8.94711C15.7618 5.60594 23.9477 7.27652 31.7994 12.7895C39.6512 18.3024 44.3288 25.3188 42.1571 28.66ZM34.8065 23.6483C33.6371 25.3188 29.6277 24.4835 25.6183 21.8106C21.7759 19.1377 19.4371 15.6294 20.6065 13.9589C21.7759 12.2883 25.7853 13.1236 29.7947 15.7965C33.6371 18.4694 35.9759 21.9777 34.8065 23.6483Z" fill="white"/>
<path d="M11.5853 11.9542C11.5853 11.7871 11.4183 11.62 11.2512 11.7871C11.0842 11.9542 10.9171 11.9542 10.9171 12.1212C11.0842 12.6224 11.2512 12.9565 11.2512 13.2906C11.2512 13.4577 11.4183 13.6247 11.5853 13.4577C11.7524 13.4577 11.9195 13.2906 11.7524 13.1236C11.7524 12.7894 11.7524 12.4553 11.5853 11.9542Z" fill="white"/>
<path d="M12.4207 14.627C12.4207 14.4599 12.2537 14.2929 12.0866 14.4599C11.9196 14.627 11.9196 14.627 11.9196 14.7941C13.7572 18.9705 17.5995 23.4811 22.6113 26.8223C22.7784 26.9893 22.9454 26.8223 23.1125 26.8223C23.2795 26.6552 23.1125 26.4882 23.1125 26.3211C17.9337 22.9799 14.2584 18.6364 12.4207 14.627Z" fill="white"/>
<path d="M32.6348 30.9989C32.4677 30.9989 32.3007 30.9989 32.3007 31.166C32.3007 31.333 32.3007 31.5001 32.4677 31.5001C32.9689 31.6671 33.6371 31.8342 34.1383 32.0013C34.3054 32.0013 34.4724 32.0013 34.4724 31.8342C34.4724 31.6671 34.4724 31.5001 34.3054 31.5001C33.8042 31.333 33.136 31.166 32.6348 30.9989Z" fill="white"/>
<path d="M35.6419 31.667C35.4748 31.667 35.3077 31.8341 35.3077 32.0011C35.3077 32.1682 35.4748 32.3352 35.6419 32.3352C36.9783 32.5023 38.4819 32.6693 39.6513 32.5023C39.8183 32.5023 39.9854 32.3352 39.9854 32.1682C39.9854 32.0011 39.8183 31.8341 39.6513 31.8341C38.3148 32.0011 36.9783 31.8341 35.6419 31.667Z" fill="white"/>
<defs>
<linearGradient id="paint0_linear_1_550" x1="18.3416" y1="5.09524" x2="24.5037" y2="26.2552" gradientUnits="userSpaceOnUse">
<stop stop-color="#03B8FF"/>
<stop offset="1" stop-color="#FA52A0"/>
</linearGradient>
<linearGradient id="paint1_linear_1_550" x1="23.4161" y1="3.61722" x2="29.5784" y2="24.7773" gradientUnits="userSpaceOnUse">
<stop stop-color="#03B8FF"/>
<stop offset="1" stop-color="#FA52A0"/>
</linearGradient>
<linearGradient id="paint2_linear_1_550" x1="13.2827" y1="6.56821" x2="19.445" y2="27.7283" gradientUnits="userSpaceOnUse">
<stop stop-color="#03B8FF"/>
<stop offset="1" stop-color="#FA52A0"/>
</linearGradient>
</defs>
</svg>
