<svg width="52" height="52" viewBox="0 0 52 52" fill="none" xmlns="http://www.w3.org/2000/svg">
<circle cx="26" cy="26" r="26" fill="#FFC700"/>
<g clip-path="url(#clip0_23_528)">
<path d="M34 28.0001C34.3852 28.0002 34.7556 28.1486 35.0344 28.4145C35.3132 28.6803 35.479 29.0432 35.4975 29.428C35.516 29.8127 35.3858 30.1899 35.1338 30.4813C34.8818 30.7726 34.5274 30.9559 34.144 30.9931L34 31.0001H21.621L23.061 32.4401C23.3338 32.7118 23.4916 33.0781 23.5017 33.463C23.5119 33.848 23.3736 34.222 23.1156 34.5078C22.8576 34.7936 22.4995 34.9693 22.1155 34.9983C21.7316 35.0274 21.3511 34.9077 21.053 34.6641L20.939 34.5611L17.11 30.7311C16.136 29.7571 16.77 28.1141 18.101 28.0061L18.241 28.0001H34ZM28.94 17.4401C29.2024 17.1775 29.5528 17.0215 29.9235 17.0023C30.2942 16.983 30.6589 17.102 30.947 17.3361L31.061 17.4391L34.89 21.2691C35.864 22.2431 35.23 23.8861 33.899 23.9941L33.759 24.0001H18C17.6148 23.9999 17.2444 23.8515 16.9656 23.5856C16.6868 23.3198 16.521 22.9569 16.5025 22.5721C16.484 22.1874 16.6142 21.8102 16.8662 21.5189C17.1182 21.2275 17.4726 21.0442 17.856 21.0071L18 21.0001H30.379L28.939 19.5601C28.6581 19.2788 28.5003 18.8976 28.5003 18.5001C28.5003 18.1026 28.6591 17.7213 28.94 17.4401Z" fill="white"/>
</g>
<defs>
<clipPath id="clip0_23_528">
<rect width="24" height="24" fill="white" transform="translate(14 14)"/>
</clipPath>
</defs>
</svg>
