<svg width="49" height="48" viewBox="0 0 49 48" fill="none" xmlns="http://www.w3.org/2000/svg">
<mask id="mask0_2_850" style="mask-type:luminance" maskUnits="userSpaceOnUse" x="0" y="-1" width="49" height="49">
<path d="M47 5.21875C47 4.09987 46.6444 3.02681 46.0115 2.23564C45.3785 1.44447 44.5201 1 43.625 1H5.375C4.47989 1 3.62145 1.44447 2.98851 2.23564C2.35558 3.02681 2 4.09987 2 5.21875V17.875H47V5.21875Z" fill="#555555" stroke="white" stroke-width="3.91667" stroke-linecap="round" stroke-linejoin="round"/>
<path d="M2.12598 44.6359L15.824 27.3391L23.2265 36.1984L32.2737 26.3125L37.3137 32.455" stroke="white" stroke-width="3.91667" stroke-linecap="round" stroke-linejoin="round"/>
<path d="M47 15.0625V41.7812C47 42.9001 46.6444 43.9732 46.0115 44.7644C45.3785 45.5555 44.5201 46 43.625 46H11M19.001 9.4375H39.251M9.99875 9.4375H12.2487M2 15.0625V27.7188" stroke="white" stroke-width="3.91667" stroke-linecap="round" stroke-linejoin="round"/>
</mask>
<g mask="url(#mask0_2_850)">
<path d="M-2.5 0.75H51.5V68.25H-2.5V0.75Z" fill="#35CF62"/>
</g>
</svg>
